<svg width="1396" height="1850" viewBox="0 0 1396 1850" fill="none" xmlns="http://www.w3.org/2000/svg">
<g filter="url(#filter0_d_2_1189)">
<path d="M808.003 1819.17H584.176C390.04 1819.17 231.306 1660.43 231.306 1466.3V455.648C231.306 261.512 390.04 62.8086 584.176 62.8086H808.003C1002.14 62.8086 1160.87 261.512 1160.87 455.648V1466.3C1162.02 1659.29 1003.28 1819.17 808.003 1819.17Z" fill="#3F3543"/>
<path fill-rule="evenodd" clip-rule="evenodd" d="M1365.29 1557.65C1339.02 1505.12 1245.38 1466.3 1188.28 1451.45L708.651 1326.98H707.509L214.176 1451.45C165.071 1464.01 77.1393 1493.7 49.7319 1535.96C41.7381 1547.38 36.0278 1559.94 31.4599 1572.5L25.75 1854.57H288.948L311.244 1807.75V1854.57H659.546H707.509H1122.05V1807.75L1144.34 1854.57H1371L1365.29 1557.65Z" fill="#BF2323"/>
<path d="M705.225 1592.11C673.25 1532.73 528.219 1406.53 448.281 1393.21C649.268 1301.85 868.908 1355.14 962.17 1393.21C899.361 1416.05 739.484 1535.01 705.225 1592.11Z" fill="#FFBE98"/>
<path d="M801.152 1465.15H611.583C575.04 1465.15 546.491 1435.46 546.491 1400.06V1092.87C546.491 1031.2 596.738 982.099 657.262 982.099H755.473C817.139 982.099 866.244 1032.35 866.244 1092.87V1400.06C866.244 1435.46 836.553 1465.15 801.152 1465.15Z" fill="#FFBE98"/>
<path fill-rule="evenodd" clip-rule="evenodd" d="M489.948 1376.37C556.106 1388.31 679.159 1495.83 705.225 1541.67C732.717 1498.28 864.031 1398.79 918.333 1377.51C934.973 1382.76 949.701 1388.12 962.17 1393.21C899.361 1416.05 739.484 1535.01 705.225 1592.11C673.25 1532.73 528.219 1406.53 448.281 1393.21C462.097 1386.93 476.002 1381.33 489.948 1376.37Z" fill="#960000"/>
<path d="M393.013 956.719C393.013 956.719 317.643 959.003 285.667 843.664C253.692 727.182 317.643 729.466 354.186 760.3L393.013 956.719Z" fill="#F3AF91"/>
<path d="M1034.8 956.719C1034.8 956.719 1110.17 959.003 1142.15 843.664C1174.12 727.182 1110.17 729.466 1073.63 760.3L1034.8 956.719Z" fill="#F3AF91"/>
<circle cx="1076.37" cy="947.839" r="22.8395" fill="#A2C0EE"/>
<circle cx="345.503" cy="947.839" r="22.8395" fill="#A2C0EE"/>
<path d="M545.349 1261.88C551.059 1284.72 747.805 1391.69 870.812 1267.59L545.349 1261.88Z" fill="#FFAC7B"/>
<path d="M1079.26 791.431C1079.26 1050.66 965.066 1309.89 722.967 1314.46C469.449 1319.02 343.832 1049.52 343.832 791.431C343.832 532.203 357.535 327.789 711.548 331.215C1084.97 335.783 1079.26 532.203 1079.26 791.431Z" fill="#FFBE98"/>
<ellipse cx="870.812" cy="776.543" rx="57.0988" ry="45.679" fill="#280F06"/>
<ellipse cx="551.059" cy="776.543" rx="57.0988" ry="45.679" fill="#280F06"/>
<path d="M803.481 679.117C823.862 662.272 879.441 634.251 938.71 656.929" stroke="#3F3543" stroke-width="22.8395" stroke-linecap="round"/>
<path d="M802.642 1153.39C773.012 1179.02 694.582 1216.66 617.906 1162.26" stroke="#B64741" stroke-width="22.8395" stroke-linecap="round"/>
<path d="M616.098 679.117C595.717 662.272 540.138 634.251 480.87 656.929" stroke="#3F3543" stroke-width="22.8395" stroke-linecap="round"/>
<path d="M698.578 799.383C689.061 864.095 671.17 995.803 675.738 1004.94C681.448 1016.36 738.547 1016.36 755.676 1004.94" stroke="#F3AF91" stroke-width="22.8395" stroke-linecap="round"/>
<path d="M1138.71 598.845C1107.87 683.351 911.453 620.542 684.2 537.178C458.089 453.814 323.336 380.727 334.756 291.653C350.743 161.468 656.793 34.7092 882.904 118.073C1110.16 200.296 1138.71 598.845 1138.71 598.845Z" fill="#3F3543"/>
</g>
<defs>
<filter id="filter0_d_2_1189" x="0.75" y="0" width="1397.53" height="1904.57" filterUnits="userSpaceOnUse" color-interpolation-filters="sRGB">
<feFlood flood-opacity="0" result="BackgroundImageFix"/>
<feColorMatrix in="SourceAlpha" type="matrix" values="0 0 0 0 0 0 0 0 0 0 0 0 0 0 0 0 0 0 127 0" result="hardAlpha"/>
<feOffset dy="25"/>
<feGaussianBlur stdDeviation="12.5"/>
<feComposite in2="hardAlpha" operator="out"/>
<feColorMatrix type="matrix" values="0 0 0 0 0 0 0 0 0 0 0 0 0 0 0 0 0 0 0.25 0"/>
<feBlend mode="normal" in2="BackgroundImageFix" result="effect1_dropShadow_2_1189"/>
<feBlend mode="normal" in="SourceGraphic" in2="effect1_dropShadow_2_1189" result="shape"/>
</filter>
</defs>
</svg>
