<svg width="1515" height="1850" viewBox="0 0 1515 1850" fill="none" xmlns="http://www.w3.org/2000/svg">
<g filter="url(#filter0_d_2_1069)">
<path d="M783.141 1729.87C1176.29 1778.85 1427.73 1563.39 1342.95 1033.12C1740.43 789.502 1183.53 12.013 783.141 12.013C382.755 12.0129 -294.177 760.688 223.335 1033.12C118.707 1589.66 387.254 1793.59 783.141 1729.87Z" fill="#590000"/>
<path fill-rule="evenodd" clip-rule="evenodd" d="M1483.5 1542.47C1455.87 1487.21 1357.36 1446.36 1297.3 1430.75L792.75 1299.81H791.549L272.588 1430.75C220.932 1443.96 128.433 1475.19 99.6017 1519.64C91.1926 1531.66 85.1857 1544.87 80.3805 1558.08L74.374 1854.81H351.245L374.699 1805.55V1854.81H741.095H791.549H1227.62V1805.55L1251.07 1854.81H1489.5L1483.5 1542.47Z" fill="#C46E6E"/>
<path d="M496.029 1370.68L780.737 1285.39L1064.24 1369.48C1063.04 1369.48 817.977 1610.94 496.029 1370.68Z" fill="#FFBE98"/>
<path d="M1129.11 1386.3C1129.11 1385.1 837.198 1685.42 432.361 1387.5C422.75 1380.29 492.426 1370.68 498.432 1369.48C498.432 1369.48 498.432 1369.48 499.633 1369.48C815.575 1604.93 1055.83 1376.69 1065.45 1368.28C1065.45 1368.28 1065.44 1368.28 1066.65 1368.28C1069.05 1369.48 1115.9 1370.68 1129.11 1386.3Z" fill="#EBE0BA"/>
<path d="M890.055 1445.16H690.639C652.198 1445.16 622.166 1413.93 622.166 1376.69V1053.54C622.166 988.669 675.023 937.013 738.691 937.013H842.004C906.874 937.013 958.53 989.87 958.53 1053.54V1376.69C958.53 1413.93 927.296 1445.16 890.055 1445.16Z" fill="#FFBE98"/>
<path d="M458.42 910.315C458.42 910.315 379.134 912.718 345.497 791.386C311.861 668.854 379.134 671.257 417.575 703.692L458.42 910.315Z" fill="#F3AF91"/>
<path d="M1134.09 910.315C1134.09 910.315 1213.37 912.718 1247.01 791.386C1280.65 668.854 1213.37 671.257 1174.93 703.692L1134.09 910.315Z" fill="#F3AF91"/>
<path d="M620.965 1231.33C626.971 1255.36 833.938 1367.88 963.335 1237.34L620.965 1231.33Z" fill="#FFAC7B"/>
<path d="M1182.62 736.441C1182.62 1009.14 1062.49 1281.83 807.811 1286.64C541.122 1291.44 408.979 1007.93 408.979 736.441C408.979 463.746 423.395 248.713 795.798 252.317C1188.62 257.123 1182.62 463.746 1182.62 736.441Z" fill="#FFBE98"/>
<ellipse cx="963.334" cy="720.779" rx="60.0649" ry="48.0519" fill="#280F06"/>
<ellipse cx="626.971" cy="720.779" rx="60.0649" ry="48.0519" fill="#280F06"/>
<path d="M892.505 618.292C913.945 600.571 972.411 571.095 1034.76 594.951" stroke="#590000" stroke-width="24.026" stroke-linecap="round"/>
<path d="M891.623 1117.21C860.454 1144.16 777.95 1183.76 697.291 1126.54" stroke="#B64741" stroke-width="24.026" stroke-linecap="round"/>
<path d="M695.389 618.292C673.95 600.571 615.483 571.095 553.136 594.951" stroke="#590000" stroke-width="24.026" stroke-linecap="round"/>
<path d="M782.153 744.805C772.142 812.879 753.322 951.429 758.127 961.039C764.133 973.052 824.198 973.052 842.218 961.039" stroke="#F3AF91" stroke-width="24.026" stroke-linecap="round"/>
<path d="M1141.13 314.747C1141.13 430.072 981.353 522.572 784.34 522.572C587.327 522.572 399.925 430.072 399.925 314.747C399.925 199.423 590.932 48.059 787.945 48.059C984.958 46.8577 1141.13 199.423 1141.13 314.747Z" fill="#590000"/>
<path d="M434.314 906.981C431.912 886.558 419.899 869.74 406.684 864.935C405.483 868.539 405.483 873.344 405.483 876.948C413.892 880.552 421.1 892.565 423.503 908.182C424.704 920.195 422.301 931.007 417.496 937.013C415.094 939.416 412.691 940.617 409.087 940.617V946.623V940.617C399.477 940.617 388.665 927.403 386.262 908.182C385.061 898.572 386.262 890.162 389.866 884.156C389.866 884.156 389.866 884.156 388.665 882.955C387.464 882.955 387.464 881.753 387.464 880.552V879.351C386.263 876.948 383.86 875.747 382.658 873.344C376.652 881.753 373.048 894.968 375.451 909.383C379.055 933.409 393.47 952.63 410.288 952.63C416.295 952.63 422.301 950.227 427.107 944.221C433.113 935.812 435.516 922.597 434.314 906.981Z" fill="#EED85A"/>
<path d="M1210.35 872.143L1209.15 870.941L1207.95 872.143C1206.75 874.545 1205.55 876.948 1203.15 878.149C1203.15 879.351 1203.15 879.351 1201.94 879.351C1206.75 885.357 1209.15 896.169 1209.15 906.98C1207.95 926.201 1197.14 939.416 1187.53 939.416V945.422V939.416C1183.93 939.416 1181.52 938.214 1179.12 934.61C1173.11 928.604 1170.71 917.792 1171.91 905.779C1173.11 897.37 1174.31 891.364 1177.92 885.357C1177.92 879.351 1176.72 874.545 1176.72 868.539C1168.31 875.747 1162.3 888.961 1161.1 904.578C1159.9 918.993 1163.5 933.409 1171.91 941.818C1176.72 946.623 1182.72 950.227 1188.73 950.227C1205.55 950.227 1219.96 931.006 1222.37 906.98C1222.37 894.967 1218.76 880.552 1210.35 872.143Z" fill="#EED85A"/>
</g>
<defs>
<filter id="filter0_d_2_1069" x="-25" y="0" width="1563.64" height="1904.81" filterUnits="userSpaceOnUse" color-interpolation-filters="sRGB">
<feFlood flood-opacity="0" result="BackgroundImageFix"/>
<feColorMatrix in="SourceAlpha" type="matrix" values="0 0 0 0 0 0 0 0 0 0 0 0 0 0 0 0 0 0 127 0" result="hardAlpha"/>
<feOffset dy="25"/>
<feGaussianBlur stdDeviation="12.5"/>
<feComposite in2="hardAlpha" operator="out"/>
<feColorMatrix type="matrix" values="0 0 0 0 0 0 0 0 0 0 0 0 0 0 0 0 0 0 0.25 0"/>
<feBlend mode="normal" in2="BackgroundImageFix" result="effect1_dropShadow_2_1069"/>
<feBlend mode="normal" in="SourceGraphic" in2="effect1_dropShadow_2_1069" result="shape"/>
</filter>
</defs>
</svg>
