<svg width="1566" height="1850" viewBox="0 0 1566 1850" fill="none" xmlns="http://www.w3.org/2000/svg">
<g filter="url(#filter0_d_2_922)">
<path fill-rule="evenodd" clip-rule="evenodd" d="M1443.06 1557.65C1416.8 1505.12 1323.16 1466.3 1266.06 1451.45L786.427 1326.97H785.286L291.952 1451.45C242.847 1464.01 154.916 1493.7 127.508 1535.96C119.514 1547.38 113.804 1559.94 109.236 1572.5L103.526 1854.57H366.724L389.02 1807.75V1854.57H737.323H785.286H1199.82V1807.75L1222.12 1854.57H1448.77L1443.06 1557.65Z" fill="#4D5903"/>
<path d="M777.293 1535.96L474.67 1404.63C721.337 1304.14 984.752 1362.76 1085.63 1404.63L777.293 1535.96Z" fill="#FFBE98"/>
<path d="M878.929 1465.15H689.36C652.817 1465.15 624.268 1435.46 624.268 1400.06V1092.87C624.268 1031.2 674.515 982.099 735.039 982.099H833.25C894.916 982.099 944.021 1032.35 944.021 1092.87V1400.06C944.021 1435.46 914.33 1465.15 878.929 1465.15Z" fill="#FFBE98"/>
<path d="M620.492 1164.81C626.202 1187.65 825.583 1288.91 948.59 1164.81H620.492Z" fill="#FFAC7B"/>
<path d="M447.951 922.46C447.951 922.46 372.58 924.744 340.605 809.404C308.63 692.923 372.58 695.207 409.123 726.04L447.951 922.46Z" fill="#F3AF91"/>
<path d="M1101.16 922.46C1101.16 922.46 1176.53 924.744 1208.51 809.404C1240.48 692.923 1176.53 695.207 1139.99 726.04L1101.16 922.46Z" fill="#F3AF91"/>
<path d="M1147.29 688.653C1147.29 947.882 1033.1 1207.11 790.997 1211.68C537.479 1216.25 411.861 946.74 411.861 688.653C411.861 429.425 425.565 225.012 779.577 228.438C1153 233.005 1147.29 429.425 1147.29 688.653Z" fill="#FFBE98"/>
<ellipse cx="937.17" cy="639.506" rx="45.679" ry="68.5185" fill="#36180E"/>
<ellipse cx="617.416" cy="639.506" rx="45.679" ry="68.5185" fill="#36180E"/>
<path d="M871.51 542.08C891.891 525.235 947.47 497.213 1006.74 519.891" stroke="#5F220D" stroke-width="45.679" stroke-linecap="round"/>
<path d="M684.127 542.08C663.746 525.235 608.167 497.213 548.898 519.891" stroke="#5F220D" stroke-width="45.679" stroke-linecap="round"/>
<path d="M845.653 1050.62C823.479 1065.02 765.059 1086.5 708.774 1057.19" stroke="#B64741" stroke-width="22.8395" stroke-linecap="round"/>
<path d="M771.446 708.025C761.93 772.737 739.062 830.216 743.63 839.352C749.34 850.772 806.438 850.772 823.568 839.352" stroke="#F3AF91" stroke-width="22.8395" stroke-linecap="round"/>
<path d="M1125.59 787.962C1122.06 779.195 1038.18 1083.32 963.72 1098.15C889.264 1112.98 969.429 1030.77 951.158 999.939C932.886 969.106 851.806 923.427 823.257 934.847C803.843 942.84 797.693 954.26 778.72 954.26C759.746 954.26 752.454 942.84 734.182 934.847C705.633 922.285 624.553 967.964 606.281 999.939C588.01 1030.77 669.09 1110.71 593.72 1098.15C518.349 1085.59 440.41 805.092 440.41 805.092C400.167 774.875 424.355 766.505 463.534 1046.76C497.794 1313.98 751.312 1311.7 779.861 1310.56C807.269 1311.7 1061.93 1313.98 1096.19 1046.76C1130.45 764.692 1171.27 759.413 1125.59 787.962ZM779.861 1193.36C779.861 1193.36 682.134 1166.49 668.805 1098.15C661.84 1062.44 634.546 999.228 647.392 1006.79C660.239 1014.35 777.578 994.229 777.578 994.229C777.578 993.087 778.72 990.803 778.72 990.803C778.72 990.803 778.72 993.087 779.861 994.229C779.861 994.229 894.344 1013.64 910.047 1006.79C925.749 999.939 904.211 1062.45 897.2 1098.15C883.929 1165.73 779.861 1193.36 779.861 1193.36Z" fill="#5F220D"/>
<path d="M777.294 1535.96L491.576 1393.21L446.121 1413.77L634.435 1598.77L777.294 1535.96Z" fill="white"/>
<path d="M777.294 1535.96L1063.01 1393.21L1108.47 1413.77L920.153 1598.77L777.294 1535.96Z" fill="white"/>
<path fill-rule="evenodd" clip-rule="evenodd" d="M788.712 1587.35C788.712 1593.65 783.6 1598.77 777.293 1598.77C770.986 1598.77 765.873 1593.65 765.873 1587.35C765.873 1581.04 770.986 1575.93 777.293 1575.93C783.6 1575.93 788.712 1581.04 788.712 1587.35ZM776.149 1584.49C776.149 1586.07 774.871 1587.35 773.294 1587.35C771.718 1587.35 770.439 1586.07 770.439 1584.49C770.439 1582.91 771.718 1581.64 773.294 1581.64C774.871 1581.64 776.149 1582.91 776.149 1584.49ZM781.288 1587.35C782.865 1587.35 784.143 1586.07 784.143 1584.49C784.143 1582.91 782.865 1581.64 781.288 1581.64C779.712 1581.64 778.434 1582.91 778.434 1584.49C778.434 1586.07 779.712 1587.35 781.288 1587.35ZM784.143 1591.34C784.143 1592.92 782.865 1594.2 781.288 1594.2C779.712 1594.2 778.434 1592.92 778.434 1591.34C778.434 1589.77 779.712 1588.49 781.288 1588.49C782.865 1588.49 784.143 1589.77 784.143 1591.34ZM773.294 1594.2C774.871 1594.2 776.149 1592.92 776.149 1591.34C776.149 1589.77 774.871 1588.49 773.294 1588.49C771.718 1588.49 770.439 1589.77 770.439 1591.34C770.439 1592.92 771.718 1594.2 773.294 1594.2Z" fill="#FFBE98"/>
<path fill-rule="evenodd" clip-rule="evenodd" d="M788.712 1667.28C788.712 1673.59 783.6 1678.7 777.293 1678.7C770.986 1678.7 765.873 1673.59 765.873 1667.28C765.873 1660.98 770.986 1655.86 777.293 1655.86C783.6 1655.86 788.712 1660.98 788.712 1667.28ZM776.149 1664.43C776.149 1666.01 774.871 1667.28 773.294 1667.28C771.718 1667.28 770.439 1666.01 770.439 1664.43C770.439 1662.85 771.718 1661.57 773.294 1661.57C774.871 1661.57 776.149 1662.85 776.149 1664.43ZM781.288 1667.28C782.865 1667.28 784.143 1666.01 784.143 1664.43C784.143 1662.85 782.865 1661.57 781.288 1661.57C779.712 1661.57 778.434 1662.85 778.434 1664.43C778.434 1666.01 779.712 1667.28 781.288 1667.28ZM784.143 1671.28C784.143 1672.86 782.865 1674.14 781.288 1674.14C779.712 1674.14 778.434 1672.86 778.434 1671.28C778.434 1669.7 779.712 1668.43 781.288 1668.43C782.865 1668.43 784.143 1669.7 784.143 1671.28ZM773.294 1674.14C774.871 1674.14 776.149 1672.86 776.149 1671.28C776.149 1669.7 774.871 1668.43 773.294 1668.43C771.718 1668.43 770.439 1669.7 770.439 1671.28C770.439 1672.86 771.718 1674.14 773.294 1674.14Z" fill="#FFBE98"/>
<path fill-rule="evenodd" clip-rule="evenodd" d="M788.712 1747.22C788.712 1753.53 783.6 1758.64 777.293 1758.64C770.986 1758.64 765.873 1753.53 765.873 1747.22C765.873 1740.92 770.986 1735.8 777.293 1735.8C783.6 1735.8 788.712 1740.92 788.712 1747.22ZM776.149 1744.37C776.149 1745.94 774.871 1747.22 773.294 1747.22C771.718 1747.22 770.439 1745.94 770.439 1744.37C770.439 1742.79 771.718 1741.51 773.294 1741.51C774.871 1741.51 776.149 1742.79 776.149 1744.37ZM781.288 1747.22C782.865 1747.22 784.143 1745.94 784.143 1744.37C784.143 1742.79 782.865 1741.51 781.288 1741.51C779.712 1741.51 778.434 1742.79 778.434 1744.37C778.434 1745.94 779.712 1747.22 781.288 1747.22ZM784.143 1751.22C784.143 1752.8 782.865 1754.07 781.288 1754.07C779.712 1754.07 778.434 1752.8 778.434 1751.22C778.434 1749.64 779.712 1748.36 781.288 1748.36C782.865 1748.36 784.143 1749.64 784.143 1751.22ZM773.294 1754.07C774.871 1754.07 776.149 1752.8 776.149 1751.22C776.149 1749.64 774.871 1748.36 773.294 1748.36C771.718 1748.36 770.439 1749.64 770.439 1751.22C770.439 1752.8 771.718 1754.07 773.294 1754.07Z" fill="#FFBE98"/>
<path fill-rule="evenodd" clip-rule="evenodd" d="M788.712 1827.16C788.712 1833.47 783.6 1838.58 777.293 1838.58C770.986 1838.58 765.873 1833.47 765.873 1827.16C765.873 1820.85 770.986 1815.74 777.293 1815.74C783.6 1815.74 788.712 1820.85 788.712 1827.16ZM776.149 1824.31C776.149 1825.88 774.871 1827.16 773.294 1827.16C771.718 1827.16 770.439 1825.88 770.439 1824.31C770.439 1822.73 771.718 1821.45 773.294 1821.45C774.871 1821.45 776.149 1822.73 776.149 1824.31ZM781.288 1827.16C782.865 1827.16 784.143 1825.88 784.143 1824.31C784.143 1822.73 782.865 1821.45 781.288 1821.45C779.712 1821.45 778.434 1822.73 778.434 1824.31C778.434 1825.88 779.712 1827.16 781.288 1827.16ZM784.143 1831.16C784.143 1832.73 782.865 1834.01 781.288 1834.01C779.712 1834.01 778.434 1832.73 778.434 1831.16C778.434 1829.58 779.712 1828.3 781.288 1828.3C782.865 1828.3 784.143 1829.58 784.143 1831.16ZM773.294 1834.01C774.871 1834.01 776.149 1832.73 776.149 1831.16C776.149 1829.58 774.871 1828.3 773.294 1828.3C771.718 1828.3 770.439 1829.58 770.439 1831.16C770.439 1832.73 771.718 1834.01 773.294 1834.01Z" fill="#FFBE98"/>
<path d="M775.219 68.5173C1206.89 -68.5203 1172.18 301.512 1184.05 547.005C1188.86 646.596 1154.15 797.097 1132.66 797.097C1102.76 797.097 1152.07 668.054 1136.08 527.591C1102.97 229.536 925.96 407.684 777.503 405.4C624.478 403.116 438.336 232.962 416.639 523.023C401.793 721.727 465.318 824.972 424.633 807.375C406.152 799.382 380.096 673.764 367.534 593.826C366.392 582.406 366.392 569.845 366.392 558.425V558.425C366.392 287.777 343.552 205.555 775.219 68.5173Z" fill="#5F220D"/>
</g>
<defs>
<filter id="filter0_d_2_922" x="-24.25" y="0" width="1614.51" height="1904.57" filterUnits="userSpaceOnUse" color-interpolation-filters="sRGB">
<feFlood flood-opacity="0" result="BackgroundImageFix"/>
<feColorMatrix in="SourceAlpha" type="matrix" values="0 0 0 0 0 0 0 0 0 0 0 0 0 0 0 0 0 0 127 0" result="hardAlpha"/>
<feOffset dy="25"/>
<feGaussianBlur stdDeviation="12.5"/>
<feComposite in2="hardAlpha" operator="out"/>
<feColorMatrix type="matrix" values="0 0 0 0 0 0 0 0 0 0 0 0 0 0 0 0 0 0 0.25 0"/>
<feBlend mode="normal" in2="BackgroundImageFix" result="effect1_dropShadow_2_922"/>
<feBlend mode="normal" in="SourceGraphic" in2="effect1_dropShadow_2_922" result="shape"/>
</filter>
</defs>
</svg>
