<svg width="1566" height="1850" viewBox="0 0 1566 1850" fill="none" xmlns="http://www.w3.org/2000/svg">
<g filter="url(#filter0_d_2_1103)">
<path fill-rule="evenodd" clip-rule="evenodd" d="M1443.07 1557.65C1416.8 1505.12 1323.16 1466.3 1266.06 1451.45L786.429 1326.98H785.288L291.954 1451.45C242.849 1464.01 154.918 1493.7 127.51 1535.96C119.516 1547.38 113.806 1559.94 109.238 1572.5L103.528 1854.57H366.726L389.022 1807.75V1854.57H737.325H785.288H1199.82V1807.75L1222.12 1854.57H1448.78L1443.07 1557.65Z" fill="#33453B"/>
<path d="M788.713 1570.22C650.106 1573.47 474.67 1404.63 474.67 1404.63C721.337 1304.14 984.752 1362.76 1085.63 1404.63C1085.63 1404.63 921.441 1567.1 788.713 1570.22Z" fill="#FFBE98"/>
<path fill-rule="evenodd" clip-rule="evenodd" d="M499.507 1395.06C517.857 1411.86 659.375 1537.39 788.713 1534.35C912.098 1531.45 1042.93 1411.97 1060.74 1395.17C1069.87 1398.36 1078.19 1401.54 1085.63 1404.63C1085.63 1404.63 921.441 1567.1 788.713 1570.22C650.106 1573.47 474.67 1404.63 474.67 1404.63C482.932 1401.26 491.214 1398.08 499.507 1395.06Z" fill="#15835B"/>
<path d="M878.929 1465.15H689.361C652.817 1465.15 624.269 1435.46 624.269 1400.06V1092.87C624.269 1031.2 674.515 982.099 735.04 982.099H833.25C894.917 982.099 944.022 1032.35 944.022 1092.87V1400.06C944.022 1435.46 914.33 1465.15 878.929 1465.15Z" fill="#FFBE98"/>
<path d="M620.492 1164.81C626.202 1187.65 825.583 1288.91 948.59 1164.81H620.492Z" fill="#FFAC7B"/>
<path d="M447.952 922.46C447.952 922.46 372.581 924.744 340.606 809.404C308.631 692.923 372.581 695.207 409.124 726.04L447.952 922.46Z" fill="#F3AF91"/>
<path d="M1101.16 922.46C1101.16 922.46 1176.53 924.744 1208.51 809.404C1240.48 692.923 1176.53 695.207 1139.99 726.04L1101.16 922.46Z" fill="#F3AF91"/>
<path d="M1147.29 688.653C1147.29 947.882 1033.1 1207.11 790.997 1211.68C537.479 1216.25 411.861 946.74 411.861 688.653C411.861 429.425 425.565 225.012 779.577 228.438C1153 233.005 1147.29 429.425 1147.29 688.653Z" fill="#FFBE98"/>
<ellipse cx="937.17" cy="639.506" rx="45.679" ry="68.5185" fill="#36180E"/>
<ellipse cx="617.416" cy="639.506" rx="45.679" ry="68.5185" fill="#36180E"/>
<path d="M871.51 542.08C891.891 525.235 947.47 497.213 1006.74 519.891" stroke="#FFFAF9" stroke-width="45.679" stroke-linecap="round"/>
<path d="M684.127 542.08C663.746 525.235 608.167 497.213 548.898 519.891" stroke="#FFFAF9" stroke-width="45.679" stroke-linecap="round"/>
<path d="M845.654 1050.62C823.48 1065.02 765.06 1086.5 708.775 1057.19" stroke="#B64741" stroke-width="22.8395" stroke-linecap="round"/>
<path d="M771.447 708.025C761.93 772.737 739.063 830.216 743.631 839.352C749.34 850.772 806.439 850.772 823.569 839.352" stroke="#F3AF91" stroke-width="22.8395" stroke-linecap="round"/>
<path d="M775.258 75.2518C343.591 -61.7859 378.296 308.247 366.43 553.739C362.769 629.493 400.45 756.122 423.252 810.802C430.427 828.009 436.883 811.702 440.381 816.512C434.672 784.537 398.406 674.789 414.393 534.326C447.511 236.27 772.974 412.134 772.974 412.134C772.974 412.134 1112.14 239.696 1133.84 529.758C1144.66 674.617 1121.07 778.922 1115.29 814.229C1113.14 827.353 1131.28 810.802 1131.28 810.802C1155.26 751.42 1170.38 680.499 1182.94 600.56C1184.08 589.141 1184.08 576.579 1184.08 565.16V565.159C1184.08 294.511 1206.92 212.289 775.258 75.2518Z" fill="#FFFDFD"/>
<path d="M1119.89 793.673C1116.35 784.906 1038.18 1083.32 963.72 1098.15C889.264 1112.98 969.43 1030.77 951.159 999.94C932.887 969.106 851.807 923.427 823.257 934.847C803.844 942.841 797.694 954.261 778.72 954.261C759.747 954.261 752.455 942.841 734.183 934.847C705.634 922.285 624.554 967.964 606.282 999.94C588.01 1030.77 669.091 1110.71 593.72 1098.15C518.35 1085.59 440.411 816.512 440.411 816.512C400.168 786.296 424.356 766.505 463.535 1046.76C497.794 1313.98 751.313 1311.7 779.862 1310.56C807.27 1311.7 1061.93 1313.98 1096.19 1046.76C1130.45 764.693 1165.56 765.123 1119.89 793.673ZM779.862 1193.36C779.862 1193.36 682.135 1166.49 668.806 1098.15C661.841 1062.44 634.547 999.228 647.393 1006.79C660.24 1014.35 777.578 994.23 777.578 994.23C777.578 993.088 778.72 990.804 778.72 990.804C778.72 990.804 778.72 993.088 779.862 994.23C779.862 994.23 894.345 1013.64 910.047 1006.79C925.75 999.94 904.211 1062.45 897.201 1098.15C883.93 1165.73 779.862 1193.36 779.862 1193.36Z" fill="#FFFDFD"/>
</g>
<defs>
<filter id="filter0_d_2_1103" x="-24.25" y="0" width="1614.51" height="1904.57" filterUnits="userSpaceOnUse" color-interpolation-filters="sRGB">
<feFlood flood-opacity="0" result="BackgroundImageFix"/>
<feColorMatrix in="SourceAlpha" type="matrix" values="0 0 0 0 0 0 0 0 0 0 0 0 0 0 0 0 0 0 127 0" result="hardAlpha"/>
<feOffset dy="25"/>
<feGaussianBlur stdDeviation="12.5"/>
<feComposite in2="hardAlpha" operator="out"/>
<feColorMatrix type="matrix" values="0 0 0 0 0 0 0 0 0 0 0 0 0 0 0 0 0 0 0.25 0"/>
<feBlend mode="normal" in2="BackgroundImageFix" result="effect1_dropShadow_2_1103"/>
<feBlend mode="normal" in="SourceGraphic" in2="effect1_dropShadow_2_1103" result="shape"/>
</filter>
</defs>
</svg>
