<svg width="1565" height="1850" viewBox="0 0 1565 1850" fill="none" xmlns="http://www.w3.org/2000/svg">
<g filter="url(#filter0_d_2_1223)">
<path fill-rule="evenodd" clip-rule="evenodd" d="M1442.57 1557.65C1416.3 1505.12 1322.66 1466.3 1265.56 1451.45L785.929 1326.98H784.788L291.454 1451.45C242.349 1464.01 154.418 1493.7 127.01 1535.96C119.016 1547.38 113.306 1559.94 108.738 1572.5L103.028 1854.57H366.226L388.522 1807.75V1854.57H736.825H784.788H1199.32V1807.75L1221.62 1854.57H1448.28L1442.57 1557.65Z" fill="#0F006F"/>
<path d="M788.213 1570.22C649.606 1573.47 474.17 1404.63 474.17 1404.63C720.837 1304.14 984.252 1362.76 1085.13 1404.63C1085.13 1404.63 920.941 1567.1 788.213 1570.22Z" fill="#FFBE98"/>
<path fill-rule="evenodd" clip-rule="evenodd" d="M499.006 1395.06C517.356 1411.86 658.874 1537.39 788.212 1534.35C911.597 1531.44 1042.43 1411.97 1060.24 1395.17C1069.37 1398.36 1077.69 1401.54 1085.13 1404.63C1085.13 1404.63 920.94 1567.1 788.212 1570.22C649.605 1573.47 474.169 1404.63 474.169 1404.63C482.431 1401.26 490.713 1398.08 499.006 1395.06Z" fill="#9394A9"/>
<path d="M878.429 1465.15H688.861C652.318 1465.15 623.769 1435.46 623.769 1400.06V1092.87C623.769 1031.2 674.015 982.099 734.54 982.099H832.75C894.417 982.099 943.522 1032.35 943.522 1092.87V1400.06C943.522 1435.46 913.831 1465.15 878.429 1465.15Z" fill="#FFBE98"/>
<path d="M619.992 1164.81C625.702 1187.65 825.082 1288.91 948.089 1164.81H619.992Z" fill="#FFAC7B"/>
<path d="M447.452 922.46C447.452 922.46 372.081 924.744 340.106 809.405C308.131 692.923 372.081 695.207 408.624 726.041L447.452 922.46Z" fill="#F3AF91"/>
<path d="M1100.66 922.46C1100.66 922.46 1176.03 924.744 1208.01 809.405C1239.98 692.923 1176.03 695.207 1139.49 726.041L1100.66 922.46Z" fill="#F3AF91"/>
<path d="M1146.79 688.653C1146.79 947.882 1032.6 1207.11 790.497 1211.68C536.979 1216.25 411.361 946.74 411.361 688.653C411.361 429.425 425.065 225.012 779.077 228.437C1152.5 233.005 1146.79 429.425 1146.79 688.653Z" fill="#FFBE98"/>
<ellipse cx="936.67" cy="639.506" rx="45.679" ry="68.5185" fill="#36180E"/>
<ellipse cx="616.917" cy="639.506" rx="45.679" ry="68.5185" fill="#36180E"/>
<path d="M871.01 542.08C891.391 525.235 946.97 497.213 1006.24 519.891" stroke="#5F220D" stroke-width="22.8395" stroke-linecap="round"/>
<path d="M845.153 1050.62C822.979 1065.02 764.559 1086.5 708.274 1057.19" stroke="#B64741" stroke-width="22.8395" stroke-linecap="round"/>
<path d="M683.628 542.08C663.247 525.235 607.668 497.213 548.399 519.891" stroke="#5F220D" stroke-width="22.8395" stroke-linecap="round"/>
<path d="M766.106 662.346C756.589 727.058 738.698 858.765 743.266 867.901C748.976 879.321 806.075 879.321 823.205 867.901" stroke="#F3AF91" stroke-width="22.8395" stroke-linecap="round"/>
<path d="M774.509 68.518C1206.18 -68.5196 1171.47 301.513 1183.34 547.006C1188.15 646.597 1146.57 776.999 1131.95 797.098C1137.66 765.123 1151.36 668.055 1135.37 527.592C1102.26 229.536 925.25 407.685 776.793 405.401C623.769 403.117 437.627 232.962 415.929 523.024C401.084 721.728 423.923 807.376 423.923 807.376C399.942 747.993 379.386 673.765 366.824 593.827C365.682 582.407 365.682 569.846 365.682 558.426V558.425C365.682 287.777 342.843 205.556 774.509 68.518Z" fill="#5F220D"/>
</g>
<defs>
<filter id="filter0_d_2_1223" x="-24.75" y="0" width="1614.51" height="1904.57" filterUnits="userSpaceOnUse" color-interpolation-filters="sRGB">
<feFlood flood-opacity="0" result="BackgroundImageFix"/>
<feColorMatrix in="SourceAlpha" type="matrix" values="0 0 0 0 0 0 0 0 0 0 0 0 0 0 0 0 0 0 127 0" result="hardAlpha"/>
<feOffset dy="25"/>
<feGaussianBlur stdDeviation="12.5"/>
<feComposite in2="hardAlpha" operator="out"/>
<feColorMatrix type="matrix" values="0 0 0 0 0 0 0 0 0 0 0 0 0 0 0 0 0 0 0.25 0"/>
<feBlend mode="normal" in2="BackgroundImageFix" result="effect1_dropShadow_2_1223"/>
<feBlend mode="normal" in="SourceGraphic" in2="effect1_dropShadow_2_1223" result="shape"/>
</filter>
</defs>
</svg>
