<svg width="1565" height="1850" viewBox="0 0 1565 1850" fill="none" xmlns="http://www.w3.org/2000/svg">
<g filter="url(#filter0_d_2_1035)">
<path fill-rule="evenodd" clip-rule="evenodd" d="M1453.99 1548.38C1427.72 1495.85 1334.08 1457.02 1276.98 1442.18L797.349 1317.7H796.208L302.874 1442.18C253.769 1454.74 165.838 1484.43 138.43 1526.68C130.436 1538.1 124.726 1550.66 120.158 1563.23L114.448 1845.29H377.646L399.942 1798.47V1845.29H748.245H796.208H1210.74V1798.47L1233.04 1845.29H1459.7L1453.99 1548.38Z" fill="#24558F"/>
<path d="M804.456 1606.62C695.969 1606.62 379.016 1431.18 511.876 1384.68C626.074 1344.71 980.086 1327.58 1094.28 1396.1C1213.54 1467.65 884.395 1606.62 804.456 1606.62Z" fill="#FFBE98"/>
<path fill-rule="evenodd" clip-rule="evenodd" d="M702.778 1557.28C745.123 1574.23 781.898 1583.78 804.456 1583.78C820.208 1583.78 852.546 1576.35 892.661 1562.24C931.835 1548.47 975.494 1529.39 1012.84 1508.3C1051.12 1486.69 1079.39 1464.81 1091.53 1446.54C1097.33 1437.8 1097.51 1432.81 1097.01 1430.42C1096.53 1428.2 1094.31 1422.75 1082.53 1415.68C1057.96 1400.94 1018.09 1389.67 967.885 1382.39C918.298 1375.19 860.969 1372.19 803.219 1372.54C686.861 1373.25 572.874 1387.53 519.422 1406.24C505.55 1411.09 503.188 1415.74 502.949 1416.32L502.948 1416.32C502.861 1416.53 501.62 1419.52 506.267 1427.91C516.065 1445.61 542.362 1469.33 580.134 1493.95C616.887 1517.92 661.177 1540.62 702.778 1557.28ZM511.876 1384.68C379.016 1431.18 695.969 1606.62 804.456 1606.62C884.395 1606.62 1213.54 1467.65 1094.28 1396.1C980.086 1327.58 626.074 1344.71 511.876 1384.68Z" fill="#09284B"/>
<path d="M889.849 1455.88H700.281C663.737 1455.88 635.188 1426.19 635.188 1390.79V1083.6C635.188 1021.93 685.435 972.825 745.96 972.825H844.17C905.836 972.825 954.942 1023.07 954.942 1083.6V1390.79C954.942 1426.19 925.25 1455.88 889.849 1455.88Z" fill="#FFBE98"/>
<path d="M634.046 1252.61C639.756 1275.45 836.502 1382.41 959.509 1258.32L634.046 1252.61Z" fill="#FFAC7B"/>
<path d="M458.872 1004.54C458.872 1004.54 383.501 1006.83 351.526 891.488C319.551 775.007 383.501 777.291 420.044 808.124L458.872 1004.54Z" fill="#F3AF91"/>
<path d="M1112.08 1004.54C1112.08 1004.54 1187.45 1006.83 1219.43 891.488C1251.4 775.007 1187.45 777.291 1150.91 808.124L1112.08 1004.54Z" fill="#F3AF91"/>
<path d="M1158.21 770.737C1158.21 1029.97 1044.02 1289.19 801.917 1293.76C548.398 1298.33 422.781 1028.82 422.781 770.737C422.781 511.509 436.485 307.096 790.497 310.522C1163.92 315.089 1158.21 511.509 1158.21 770.737Z" fill="#FFBE98"/>
<path d="M785.929 150.602C862.441 122.053 1182.89 383.597 1194.76 629.09C1199.57 728.681 1157.98 859.083 1143.37 879.182C1149.08 847.207 1162.78 750.139 1146.79 609.676C1113.68 311.62 936.669 489.769 788.212 487.485C635.188 485.201 449.046 315.046 427.348 605.108C412.503 803.812 435.342 889.46 435.342 889.46C411.361 830.077 390.805 755.849 378.244 675.911C377.102 664.491 377.102 651.929 377.102 640.51V640.509C377.102 369.861 709.416 179.151 785.929 150.602Z" fill="#5F220D"/>
<circle cx="948.09" cy="721.59" r="45.679" fill="#0C0908"/>
<circle cx="628.336" cy="721.59" r="45.679" fill="#0C0908"/>
<path d="M882.43 624.164C902.811 607.319 958.39 579.297 1017.66 601.975" stroke="#5F220D" stroke-width="22.8395" stroke-linecap="round"/>
<path d="M856.573 1132.7C834.919 1157.94 777.228 1194.59 719.694 1139.27" stroke="#B64741" stroke-width="22.8395" stroke-linecap="round"/>
<path d="M695.047 624.164C674.666 607.319 619.087 579.297 559.818 601.975" stroke="#5F220D" stroke-width="22.8395" stroke-linecap="round"/>
<path d="M777.526 744.43C768.009 809.142 750.118 940.849 754.686 949.985C760.396 961.405 817.495 961.405 834.625 949.985" stroke="#F3AF91" stroke-width="22.8395" stroke-linecap="round"/>
<path fill-rule="evenodd" clip-rule="evenodd" d="M422.78 847.207C434.2 908.113 530.126 1008.23 594.077 1035.63C604.825 1040.24 614.025 1046.91 621.898 1055.15C640.467 1039.33 669.768 1015.75 714.553 1007.55C747.463 1001.53 804.495 1000.28 844.678 1007.54C866.426 1011.47 885.552 1019.97 903.457 1029.84C915.267 1036.36 927.749 1044.2 940.226 1052.04C942.642 1053.56 945.058 1055.08 947.469 1056.59C955.635 1047.69 965.271 1040.51 976.639 1035.63C1040.59 1008.23 1136.52 908.113 1147.93 847.207C1130.6 1137.57 991.97 1250.45 914.415 1272.63C870.568 1294.88 740.365 1307.47 658.576 1273.26C581.491 1252.66 440.286 1140.43 422.78 847.207ZM664.961 1173.98C713.082 1200.94 804.067 1225.04 905.63 1175.15C908.093 1151.82 912.347 1128 919.649 1106.54C915.594 1104.01 911.74 1101.59 908.034 1099.26L908.031 1099.26L908.031 1099.26C896.43 1091.96 886.27 1085.58 875.874 1079.84C860.776 1071.51 847.783 1066.12 834.526 1063.73C801.517 1057.76 751.421 1058.85 724.836 1063.72C693.969 1069.37 676.417 1084.11 658.086 1099.5C655.666 1101.54 653.231 1103.58 650.751 1105.62C658.123 1126.96 662.443 1150.69 664.961 1173.98Z" fill="#612004"/>
</g>
<defs>
<filter id="filter0_d_2_1035" x="-24.75" y="0" width="1614.51" height="1900" filterUnits="userSpaceOnUse" color-interpolation-filters="sRGB">
<feFlood flood-opacity="0" result="BackgroundImageFix"/>
<feColorMatrix in="SourceAlpha" type="matrix" values="0 0 0 0 0 0 0 0 0 0 0 0 0 0 0 0 0 0 127 0" result="hardAlpha"/>
<feOffset dy="25"/>
<feGaussianBlur stdDeviation="12.5"/>
<feComposite in2="hardAlpha" operator="out"/>
<feColorMatrix type="matrix" values="0 0 0 0 0 0 0 0 0 0 0 0 0 0 0 0 0 0 0.25 0"/>
<feBlend mode="normal" in2="BackgroundImageFix" result="effect1_dropShadow_2_1035"/>
<feBlend mode="normal" in="SourceGraphic" in2="effect1_dropShadow_2_1035" result="shape"/>
</filter>
</defs>
</svg>
