<svg width="1471" height="1850" viewBox="0 0 1471 1850" fill="none" xmlns="http://www.w3.org/2000/svg">
<g filter="url(#filter0_d_2_1254)">
<path d="M1124.9 813.518C1135.75 774.951 1161.06 678.534 1175.52 558.013C1170.7 278.404 1063.44 25.3093 744.056 25.3093C413.828 25.3093 312.59 284.43 312.59 570.065C312.59 582.117 312.59 595.375 313.795 607.427C327.053 691.791 348.747 770.13 374.056 832.801C374.056 832.801 365.619 743.615 365.619 532.703C365.619 296.482 581.352 267.557 742.851 268.762C899.528 271.172 1124.9 300.098 1124.9 537.524C1124.9 685.766 1127.31 788.208 1121.29 821.954C1122.49 818.339 1123.7 815.928 1124.9 813.518Z" fill="#A7191A"/>
<path d="M1156.24 678.534C1169.5 680.945 1173.11 713.485 1164.68 752.052C1156.24 789.414 1136.96 817.134 1123.7 813.518C1111.65 809.902 1109.24 777.362 1117.67 741.205C1127.31 703.844 1144.19 676.124 1156.24 678.534Z" fill="#A7191A"/>
<path d="M1174.32 541.14C1177.93 541.14 1180.34 542.345 1183.96 545.961C1185.16 547.166 1186.37 549.577 1187.58 551.987C1188.78 553.192 1188.78 554.397 1189.99 556.808C1189.99 558.013 1189.99 559.218 1189.99 560.424V562.834C1192.4 576.091 1193.6 594.169 1189.99 613.453C1183.96 652.02 1167.09 680.945 1155.03 678.534C1141.78 676.124 1138.16 643.583 1142.98 606.221C1145.39 588.143 1150.21 571.27 1156.24 559.218C1158.65 555.603 1161.06 549.577 1163.47 547.166C1168.29 543.551 1171.91 541.14 1174.32 541.14Z" fill="#A7191A"/>
<path d="M1161.06 402.541C1174.32 400.13 1189.99 429.055 1193.6 468.827C1197.22 508.599 1187.57 539.935 1174.32 539.935C1161.06 539.935 1150.21 509.804 1146.6 473.648C1142.98 437.492 1147.8 404.951 1161.06 402.541Z" fill="#A7191A"/>
<path d="M1122.49 269.967C1134.55 265.146 1157.44 290.456 1168.29 329.023C1179.14 367.589 1174.32 401.335 1161.06 402.541C1147.8 404.951 1133.34 377.231 1122.49 341.075C1112.85 306.124 1110.44 274.788 1122.49 269.967Z" fill="#A7191A"/>
<path d="M1051.39 151.856C1056.21 147.036 1065.85 149.446 1077.9 157.883C1083.93 161.498 1089.95 167.524 1095.98 173.55C1102 180.782 1108.03 188.013 1112.85 196.449C1133.34 231.4 1135.75 266.352 1123.7 271.173C1111.65 275.993 1091.16 251.889 1071.87 221.759C1052.59 189.218 1040.54 160.293 1051.39 151.856Z" fill="#A7191A"/>
<path d="M941.712 66.2866C944.122 60.2606 953.764 59.0552 968.227 61.4657C981.484 63.8761 998.357 72.3127 1015.23 84.3648C1023.67 90.3909 1029.69 97.6221 1035.72 104.853C1041.74 112.085 1045.36 118.111 1048.98 124.137C1055 137.394 1056.21 145.831 1050.18 150.651C1039.33 159.088 1014.02 143.42 985.1 121.726C958.585 101.238 936.891 78.3387 941.712 66.2866Z" fill="#A7191A"/>
<path d="M809.138 28.9249C810.343 22.8988 818.78 18.0779 832.037 15.6675C839.268 14.4623 846.5 14.4624 856.141 14.4624C864.578 15.6676 874.219 16.8728 883.861 19.2832C893.503 21.6936 903.145 25.3093 910.376 30.1302C917.607 34.951 924.838 38.5666 929.659 43.3874C940.506 53.0291 944.121 61.4656 941.711 67.4916C939.301 73.5177 929.659 75.9282 916.402 74.723C910.376 74.723 903.145 73.5178 894.708 72.3126C887.477 71.1074 879.04 68.697 869.398 66.2865C860.962 63.8761 852.525 61.4655 845.294 57.8499C838.063 55.4395 830.832 51.8239 826.011 49.4135C815.164 42.1822 809.138 34.951 809.138 28.9249Z" fill="#A7191A"/>
<path d="M670.539 28.925C668.128 15.6677 699.464 0 739.236 0C779.008 0 810.343 14.4624 809.138 27.7197C806.727 40.9771 776.597 47.0032 740.441 47.0032C704.284 48.2084 672.949 42.1823 670.539 28.925Z" fill="#A7191A"/>
<path d="M539.171 68.6971C536.76 62.671 540.376 54.2345 551.223 44.5928C562.07 34.9511 577.737 26.5147 597.021 20.4886C636.793 8.43648 670.539 16.8729 671.744 28.925C672.949 42.1824 645.229 55.4397 610.278 65.0814C593.405 69.9022 576.532 73.5179 564.48 74.7231C551.223 75.9283 541.581 74.7231 539.171 68.6971Z" fill="#A7191A"/>
<path d="M430.701 154.267C425.88 149.446 425.88 139.805 431.906 127.752C434.317 121.726 439.137 114.495 445.163 107.264C451.189 100.033 458.421 94.0065 465.652 86.7753C481.32 74.7231 499.398 66.2867 512.656 62.671C525.913 60.2606 535.555 61.4657 539.17 67.4918C545.197 79.5439 523.502 101.238 495.782 122.932C466.857 147.036 441.548 162.703 430.701 154.267Z" fill="#A7191A"/>
<path d="M360.798 273.583C348.746 268.762 349.952 235.016 370.441 198.86C375.262 190.423 381.287 181.987 387.313 175.961C393.339 169.935 399.365 163.909 405.391 160.293C417.444 153.062 425.88 150.651 431.906 154.267C436.727 159.088 436.727 168.73 433.111 180.782C430.701 186.808 428.291 194.039 424.675 201.27C421.06 208.501 417.444 215.733 412.623 224.169C393.34 254.299 372.851 278.404 360.798 273.583Z" fill="#A7191A"/>
<path d="M324.642 407.361C311.385 404.951 305.359 372.41 316.206 333.844C321.027 314.56 329.463 297.687 337.9 286.84C346.336 275.993 354.772 271.172 360.798 273.583C372.851 278.404 371.646 309.739 362.004 345.896C352.362 380.847 337.899 409.772 324.642 407.361Z" fill="#A7191A"/>
<path d="M312.59 545.961C299.333 545.961 289.692 513.42 292.102 474.853C295.718 435.081 311.385 406.156 324.642 408.567C337.899 410.977 342.72 442.312 339.105 479.674C336.694 515.83 325.847 545.961 312.59 545.961Z" fill="#A7191A"/>
<path d="M328.259 683.355C316.206 685.765 298.128 658.046 292.102 619.479C292.102 617.069 290.896 614.658 290.896 612.248C290.896 611.042 290.896 607.427 290.896 606.222V602.606C290.896 597.785 290.897 592.964 292.102 589.349C293.307 580.912 294.512 572.476 296.923 566.45C301.743 553.192 307.77 545.961 313.796 545.961C319.822 545.961 325.847 554.398 330.668 566.45C333.079 572.476 335.489 579.707 336.694 588.143C337.9 591.759 337.9 596.58 337.9 600.195V603.811C337.9 605.017 337.9 603.811 337.9 605.016C337.9 607.427 339.105 609.837 339.105 612.248C345.131 648.404 341.516 679.739 328.259 683.355Z" fill="#A7191A"/>
<path d="M368.03 815.928C355.978 820.749 334.284 794.235 323.437 756.873C312.59 719.512 316.206 685.766 328.258 683.355C341.516 680.945 357.183 708.665 368.03 743.616C378.877 779.772 380.082 811.108 368.03 815.928Z" fill="#A7191A"/>
<path d="M368.03 709.87C381.287 709.87 392.135 740 394.545 778.567C395.75 799.055 393.339 818.339 389.724 830.391L360.798 918.371L359.593 837.622C359.593 825.57 362.004 818.339 368.03 815.928C374.056 813.518 380.082 818.339 388.519 825.57L359.593 832.801C353.567 820.749 348.747 801.466 347.541 779.772C345.131 741.205 354.773 709.87 368.03 709.87Z" fill="#A7191A"/>
<path d="M365.62 571.271C378.877 571.271 389.724 602.606 389.724 639.968C389.724 678.535 380.083 709.87 368.03 709.87C354.773 709.87 343.926 679.739 342.721 641.173C341.515 602.606 352.363 571.271 365.62 571.271Z" fill="#A7191A"/>
<path d="M381.287 433.876C387.313 436.287 390.929 444.723 390.929 457.981C392.134 470.033 390.929 486.905 389.724 503.778C388.519 512.215 388.519 520.651 386.108 529.088C384.903 537.524 383.698 544.756 381.287 550.782C376.466 562.834 371.646 571.27 364.415 571.27C358.389 571.27 352.362 564.039 347.541 550.782C345.131 544.756 343.926 537.524 342.72 529.088C341.515 520.651 341.515 511.01 342.72 500.163C343.926 479.674 351.157 461.596 358.389 449.544C366.825 437.492 374.056 431.466 381.287 433.876Z" fill="#A7191A"/>
<path d="M465.653 326.612C472.884 338.664 453.6 361.564 433.112 388.078C422.265 401.335 412.624 413.388 404.187 421.824C395.751 430.261 387.314 436.287 381.288 433.876C375.262 431.466 371.646 421.824 374.057 408.567C375.262 394.104 382.493 376.026 395.75 359.153C409.008 342.28 425.881 331.433 439.138 326.612C451.19 320.586 462.037 321.791 465.653 326.612Z" fill="#A7191A"/>
<path d="M594.611 278.404C597.021 291.661 569.301 306.124 535.555 318.176C518.682 324.202 503.015 329.023 490.963 330.228C478.91 332.638 469.268 331.433 465.653 326.612C462.037 320.586 465.653 312.15 475.294 301.303C484.936 290.456 500.604 280.814 519.887 273.583C558.454 260.326 592.2 266.352 594.611 278.404Z" fill="#A7191A"/>
<path d="M732.005 268.762C732.005 282.019 700.669 291.661 664.513 294.071C627.151 296.482 597.021 291.661 593.406 279.609C590.995 266.352 621.125 250.684 660.897 247.068C700.669 244.658 733.21 255.505 732.005 268.762Z" fill="#A7191A"/>
<path d="M870.604 278.404C868.194 291.661 836.858 296.482 799.496 294.071C762.135 291.661 732.005 280.814 732.005 268.762C732.005 255.505 763.34 244.658 803.112 247.068C842.884 249.479 873.015 265.146 870.604 278.404Z" fill="#A7191A"/>
<path d="M1001.97 319.381C994.74 330.228 965.815 325.407 930.864 315.765C895.913 304.918 868.193 290.456 870.603 277.199C871.808 263.941 905.554 257.915 945.326 269.967C964.609 275.993 981.483 285.635 991.124 294.072C1001.97 304.918 1005.59 314.56 1001.97 319.381Z" fill="#A7191A"/>
<path d="M1098.39 417.003C1092.36 419.414 1083.93 415.798 1074.28 408.566C1064.64 401.335 1053.8 390.488 1041.74 378.436C1029.69 366.384 1018.84 355.537 1010.41 344.69C1003.18 335.049 998.356 326.612 1001.97 320.586C1005.59 314.56 1015.23 313.355 1028.49 316.97C1041.74 320.586 1058.62 330.228 1074.28 344.69C1089.95 359.153 1098.39 377.231 1102 390.488C1106.83 403.746 1104.41 413.387 1098.39 417.003Z" fill="#A7191A"/>
<path d="M1124.9 551.987C1118.88 551.987 1112.85 543.551 1108.03 531.498C1103.21 519.446 1100.8 503.778 1097.18 486.905C1094.77 470.032 1092.36 454.365 1092.36 441.108C1092.36 429.055 1093.57 419.414 1099.59 417.003C1105.62 414.593 1114.06 418.209 1123.7 429.055C1132.14 439.902 1140.57 457.98 1144.19 478.469C1147.8 498.957 1145.39 518.241 1141.78 531.498C1136.96 543.551 1130.93 550.782 1124.9 551.987Z" fill="#A7191A"/>
<path d="M1124.9 690.586C1111.65 690.586 1100.8 659.251 1100.8 620.684C1100.8 582.117 1111.65 550.782 1123.7 550.782C1136.96 550.782 1147.8 582.117 1147.8 620.684C1149.01 659.251 1138.16 690.586 1124.9 690.586Z" fill="#A7191A"/>
<path d="M1124.9 813.518C1128.52 814.723 1130.93 819.544 1130.93 825.57L1135.75 867.752L1110.44 819.544C1104.42 808.697 1100.8 787.003 1100.8 760.489C1100.8 723.127 1111.65 691.792 1124.9 691.792C1138.16 691.792 1149.01 723.127 1147.8 761.694C1147.8 788.208 1140.57 812.313 1130.93 824.365L1110.44 818.339C1116.47 812.313 1121.29 811.108 1124.9 813.518Z" fill="#A7191A"/>
<path d="M372.412 550.782C361.565 589.349 336.256 685.766 321.793 806.287C326.614 1085.9 433.878 1338.99 753.26 1338.99C1083.49 1338.99 1184.73 1079.87 1184.73 794.235C1184.73 782.183 1184.73 768.925 1183.52 756.873C1170.26 672.508 1148.57 594.17 1123.26 531.499C1123.26 531.499 1131.7 620.684 1131.7 831.596C1131.7 1067.82 915.963 1096.74 754.465 1095.54C597.787 1093.13 372.412 1064.2 372.412 826.775C372.412 678.534 370.001 576.091 376.028 542.345C374.822 545.961 373.617 548.372 372.412 550.782Z" fill="#A7191A"/>
<path d="M339.871 685.766C326.614 683.355 322.999 650.815 331.435 612.248C339.871 574.886 359.154 547.166 372.412 550.782C384.464 554.398 386.874 586.938 378.438 623.095C368.796 660.456 353.128 688.176 339.871 685.766Z" fill="#A7191A"/>
<path d="M321.792 823.16C318.177 823.16 315.766 821.955 312.151 818.339C310.946 817.134 309.74 814.723 308.535 812.313C307.33 811.108 307.33 809.902 306.125 807.492C306.125 806.287 306.125 805.082 306.125 803.876V801.466C303.714 788.209 302.509 770.131 306.125 750.847C312.151 712.28 329.024 683.355 341.076 685.766C354.333 688.176 357.949 720.717 353.128 758.079C350.718 776.157 345.897 793.03 339.871 805.082C337.46 808.697 335.05 814.723 332.64 817.134C327.819 820.749 325.408 823.16 321.792 823.16Z" fill="#A7191A"/>
<path d="M336.255 961.759C322.998 964.17 307.33 935.245 303.714 895.473C300.099 855.701 309.741 824.365 322.998 824.365C336.255 824.365 347.102 854.496 350.718 890.652C354.333 926.808 349.512 958.144 336.255 961.759Z" fill="#A7191A"/>
<path d="M374.822 1094.33C362.77 1099.15 339.871 1073.84 329.024 1035.28C318.177 996.711 322.998 962.965 336.255 961.759C349.512 959.349 363.975 987.069 374.822 1023.23C384.464 1058.18 386.874 1089.51 374.822 1094.33Z" fill="#A7191A"/>
<path d="M445.93 1212.44C441.109 1217.26 431.467 1214.85 419.415 1206.42C413.389 1202.8 407.363 1196.78 401.337 1190.75C395.311 1183.52 389.284 1176.29 384.463 1167.85C363.975 1132.9 361.565 1097.95 373.617 1093.13C385.669 1088.31 406.157 1112.41 425.441 1142.54C443.519 1175.08 455.571 1204.01 445.93 1212.44Z" fill="#A7191A"/>
<path d="M554.399 1296.81C551.988 1302.83 542.347 1304.04 527.884 1301.63C514.627 1299.22 497.753 1290.78 480.88 1278.73C472.444 1272.7 466.418 1265.47 460.392 1258.24C454.366 1251.01 450.75 1244.98 447.135 1238.96C441.109 1225.7 439.904 1217.26 445.93 1212.44C456.777 1204.01 482.086 1219.67 511.011 1241.37C538.731 1263.06 560.425 1285.96 554.399 1296.81Z" fill="#A7191A"/>
<path d="M686.973 1335.37C685.767 1341.4 677.331 1346.22 664.073 1348.63C656.842 1349.84 649.611 1349.84 639.969 1349.84C631.533 1348.63 621.891 1347.43 612.249 1345.02C602.608 1342.61 592.966 1338.99 585.735 1334.17C578.503 1329.35 571.272 1325.73 566.451 1320.91C555.605 1311.27 551.989 1302.83 554.399 1296.81C556.81 1290.78 566.451 1288.37 579.708 1289.58C585.735 1289.58 592.966 1290.78 601.402 1291.99C608.633 1293.19 617.07 1295.6 626.712 1298.01C635.149 1300.42 643.585 1302.83 650.816 1306.45C658.048 1308.86 665.279 1312.48 670.099 1314.89C680.946 1322.12 688.178 1329.35 686.973 1335.37Z" fill="#A7191A"/>
<path d="M825.571 1335.37C827.981 1348.63 796.645 1364.3 756.873 1364.3C717.101 1364.3 685.766 1349.84 686.971 1336.58C689.382 1323.32 719.511 1317.3 755.668 1317.3C793.029 1316.09 824.365 1322.12 825.571 1335.37Z" fill="#A7191A"/>
<path d="M958.145 1295.6C960.556 1301.63 956.94 1310.07 946.093 1319.71C935.246 1329.35 919.578 1337.78 900.295 1343.81C860.523 1355.86 826.777 1347.43 825.572 1335.37C824.367 1322.12 852.086 1308.86 887.038 1299.22C903.911 1294.4 920.783 1290.78 932.835 1289.58C946.093 1287.17 955.735 1289.58 958.145 1295.6Z" fill="#A7191A"/>
<path d="M1066.61 1210.03C1071.44 1214.85 1071.43 1224.5 1065.41 1236.55C1063 1242.57 1058.18 1249.8 1052.15 1257.04C1046.13 1264.27 1038.89 1270.29 1031.66 1277.52C1016 1289.58 997.917 1298.01 984.659 1301.63C971.402 1304.04 961.761 1302.83 958.145 1296.81C952.119 1284.76 973.813 1263.06 1001.53 1241.37C1029.25 1217.26 1055.77 1201.6 1066.61 1210.03Z" fill="#A7191A"/>
<path d="M1135.31 1090.72C1147.36 1095.54 1146.16 1129.28 1125.67 1165.44C1120.85 1173.88 1114.82 1182.31 1108.8 1188.34C1102.77 1194.36 1096.74 1200.39 1090.72 1204.01C1078.67 1211.24 1070.23 1213.65 1064.2 1210.03C1059.38 1205.21 1059.38 1195.57 1063 1183.52C1065.41 1177.49 1067.82 1170.26 1071.43 1163.03C1075.05 1155.8 1078.67 1148.57 1083.49 1140.13C1102.77 1110 1123.26 1085.9 1135.31 1090.72Z" fill="#A7191A"/>
<path d="M1171.47 956.939C1184.72 959.349 1190.75 991.889 1179.9 1030.46C1175.08 1049.74 1166.65 1066.61 1158.21 1077.46C1149.77 1088.31 1141.34 1093.13 1135.31 1090.72C1123.26 1085.9 1124.46 1054.56 1134.11 1018.4C1143.75 982.248 1159.42 954.528 1171.47 956.939Z" fill="#A7191A"/>
<path d="M1183.52 818.339C1196.78 818.339 1206.42 850.88 1204.01 889.446C1200.39 929.218 1184.72 958.143 1171.47 955.733C1158.21 953.322 1153.39 921.987 1157.01 884.626C1159.42 848.469 1171.47 818.339 1183.52 818.339Z" fill="#A7191A"/>
<path d="M1167.85 680.945C1179.9 678.534 1197.98 706.254 1204.01 744.821C1204.01 747.232 1205.21 749.642 1205.21 752.052C1205.21 753.258 1205.21 756.873 1205.21 758.079V761.694C1205.21 766.515 1205.21 771.336 1204.01 774.951C1202.8 783.388 1201.6 791.824 1199.19 797.85C1194.37 811.108 1188.34 818.339 1182.31 818.339C1176.29 818.339 1170.26 809.902 1165.44 797.85C1163.03 791.824 1160.62 784.593 1159.41 776.157C1158.21 772.541 1158.21 767.72 1158.21 764.105V760.489C1158.21 759.284 1158.21 760.489 1158.21 759.283C1158.21 756.873 1157 754.463 1157 752.052C1152.18 715.896 1155.8 684.56 1167.85 680.945Z" fill="#A7191A"/>
<path d="M1129.28 548.371C1141.34 543.55 1163.03 570.065 1173.88 607.427C1184.72 644.788 1181.11 678.534 1169.06 680.944C1155.8 683.355 1140.13 655.635 1129.28 620.684C1118.44 584.527 1117.23 553.192 1129.28 548.371Z" fill="#A7191A"/>
<path d="M1129.28 654.43C1116.03 654.43 1105.18 624.3 1102.77 585.733C1101.57 565.244 1103.98 545.961 1107.59 533.909L1136.52 445.928L1137.72 526.678C1137.72 538.73 1135.31 545.961 1129.28 548.371C1123.26 550.782 1117.23 545.961 1108.8 538.73L1137.72 531.498C1143.75 543.55 1148.57 562.834 1149.77 584.528C1152.18 621.889 1142.54 653.225 1129.28 654.43Z" fill="#A7191A"/>
<path d="M1131.7 793.03C1118.44 793.03 1107.59 761.694 1107.59 724.332C1107.59 685.766 1117.23 654.43 1129.28 654.43C1142.54 654.43 1153.39 684.56 1154.59 723.127C1154.59 761.694 1144.95 793.03 1131.7 793.03Z" fill="#A7191A"/>
<path d="M1116.03 930.423C1110 928.013 1106.39 919.576 1106.39 906.319C1105.18 894.267 1106.39 877.394 1107.59 860.521C1108.8 852.085 1108.8 843.648 1111.21 835.212C1112.41 826.775 1113.62 819.544 1116.03 813.518C1120.85 801.466 1125.67 793.029 1132.9 793.029C1138.93 793.029 1144.95 800.26 1149.77 813.518C1152.18 819.544 1153.39 826.775 1154.59 835.212C1155.8 843.648 1155.8 853.29 1154.59 864.137C1153.39 884.625 1146.16 902.704 1138.93 914.756C1130.49 926.808 1122.05 932.834 1116.03 930.423Z" fill="#A7191A"/>
<path d="M1031.66 1036.48C1024.43 1024.43 1043.72 1001.53 1064.2 975.016C1075.05 961.759 1084.69 949.707 1093.13 941.27C1101.56 932.834 1110 926.808 1116.03 929.218C1122.05 931.629 1125.67 941.27 1123.26 954.528C1122.05 968.99 1114.82 987.069 1101.56 1003.94C1088.31 1020.81 1071.43 1031.66 1058.18 1036.48C1044.92 1043.71 1035.28 1042.51 1031.66 1036.48Z" fill="#A7191A"/>
<path d="M902.705 1084.69C900.294 1071.43 928.015 1056.97 961.76 1044.92C978.633 1038.89 994.301 1034.07 1006.35 1032.87C1018.41 1030.46 1028.05 1031.66 1031.66 1036.48C1035.28 1042.51 1031.66 1050.94 1022.02 1061.79C1012.38 1072.64 996.712 1082.28 977.428 1089.51C938.861 1103.97 905.115 1097.95 902.705 1084.69Z" fill="#A7191A"/>
<path d="M764.105 1095.54C764.105 1082.28 795.441 1072.64 831.598 1070.23C868.959 1067.82 899.089 1072.64 902.705 1084.69C905.115 1097.95 874.985 1113.62 835.213 1117.23C795.441 1119.64 764.105 1108.79 764.105 1095.54Z" fill="#A7191A"/>
<path d="M625.506 1085.9C627.916 1072.64 659.252 1067.82 696.613 1070.23C733.975 1072.64 764.105 1083.49 764.105 1095.54C764.105 1108.79 732.77 1119.64 692.998 1117.23C654.431 1114.82 624.3 1099.15 625.506 1085.9Z" fill="#A7191A"/>
<path d="M494.138 1043.71C501.369 1032.87 530.294 1037.69 565.245 1047.33C600.196 1058.18 627.916 1072.64 625.506 1085.9C624.301 1099.15 590.555 1105.18 550.783 1093.13C531.499 1087.1 514.626 1077.46 504.985 1069.02C495.343 1059.38 491.728 1049.74 494.138 1043.71Z" fill="#A7191A"/>
<path d="M397.721 947.296C403.747 944.886 412.184 948.502 421.825 955.733C431.467 962.964 442.313 973.811 454.366 985.863C466.418 997.915 477.265 1008.76 485.701 1019.61C492.933 1029.25 497.754 1037.69 494.138 1043.71C490.522 1049.74 480.881 1050.94 467.623 1047.33C454.366 1043.71 437.493 1034.07 421.825 1019.61C406.158 1005.15 397.721 987.069 394.105 973.811C390.489 960.554 391.695 950.912 397.721 947.296Z" fill="#A7191A"/>
<path d="M372.411 812.313C378.438 812.313 384.464 820.749 389.285 832.801C394.106 844.853 396.516 860.521 400.131 877.394C402.542 894.267 404.952 909.935 404.952 923.192C404.952 935.244 403.747 944.886 397.721 947.296C391.695 949.707 383.259 946.091 373.617 935.244C365.181 924.397 356.744 906.319 353.128 885.831C349.513 865.342 351.923 846.059 355.539 832.801C360.36 819.544 366.385 812.313 372.411 812.313Z" fill="#A7191A"/>
<path d="M372.41 673.714C385.667 673.714 396.514 705.049 396.514 743.616C396.514 782.183 385.668 813.518 373.616 813.518C360.358 813.518 349.512 782.183 349.512 743.616C348.306 705.049 359.153 673.714 372.41 673.714Z" fill="#A7191A"/>
<path d="M372.41 550.782C368.795 549.577 366.384 544.756 366.384 538.73L361.564 496.547L386.873 544.756C392.899 555.603 396.514 577.296 396.514 603.811C396.514 641.173 385.667 672.508 372.41 672.508C359.153 672.508 348.306 641.173 349.512 602.606C349.512 576.091 356.742 551.987 366.384 539.935L386.873 545.961C380.847 551.987 376.026 551.987 372.41 550.782Z" fill="#A7191A"/>
<path fill-rule="evenodd" clip-rule="evenodd" d="M1439.46 1535.44C1411.74 1480 1312.92 1439.02 1252.66 1423.36L746.467 1291.99H745.262L224.61 1423.36C172.786 1436.61 79.985 1467.95 51.0599 1512.54C42.6234 1524.59 36.5969 1537.85 31.7761 1551.11L25.75 1848.79H303.523L327.053 1799.38V1848.79H694.643H745.262H1182.75V1799.38L1206.28 1848.79H1445.49L1439.46 1535.44Z" fill="#6EC48D"/>
<path d="M459.627 1364.3L745.262 1278.73L1038.13 1367.92C1038.13 1367.92 774.187 1447.46 746.467 1566.78C672.949 1422.15 564.48 1441.43 459.627 1364.3Z" fill="#FFBE98"/>
<path d="M844.089 1437.82H644.024C605.457 1437.82 575.327 1406.48 575.327 1369.12V1044.92C575.327 979.837 628.356 928.013 692.232 928.013H795.881C860.962 928.013 912.787 981.043 912.787 1044.92V1369.12C912.787 1406.48 881.451 1437.82 844.089 1437.82Z" fill="#FFBE98"/>
<path d="M483.731 1355.86L459.627 1364.45C495.76 1390.29 533.05 1405.8 569.382 1420.9C637.394 1449.18 699.042 1476.06 746.467 1566.78C773.901 1451.95 1038.13 1367.92 1038.13 1367.92L1001.97 1355.86C929.645 1381.99 767.97 1455.48 746.467 1548.03C699.029 1454.71 637.037 1429.63 570.855 1402.86C541.023 1390.8 514.317 1375.02 483.731 1355.86Z" fill="#0B5325"/>
<path d="M401.299 901.228C401.299 901.228 321.755 903.638 288.009 781.912C254.263 658.98 321.755 661.391 360.321 693.932L401.299 901.228Z" fill="#F3AF91"/>
<path d="M1088.92 901.228C1088.92 901.228 1168.46 903.638 1202.21 781.912C1235.95 658.98 1168.46 661.391 1129.89 693.932L1088.92 901.228Z" fill="#F3AF91"/>
<path d="M1164.68 868.957C1164.68 899.088 1142.98 924.397 1115.26 924.397C1087.54 924.397 1065.85 899.088 1065.85 868.957C1065.85 838.827 1087.54 813.518 1115.26 813.518C1142.98 813.518 1164.68 838.827 1164.68 868.957Z" fill="#ED7574"/>
<path d="M425.88 868.957C425.88 899.088 404.186 924.397 376.467 924.397C348.747 924.397 327.053 899.088 327.053 868.957C327.053 838.827 348.747 813.518 376.467 813.518C404.186 813.518 425.88 838.827 425.88 868.957Z" fill="#ED7574"/>
<path d="M574.122 1223.29C580.148 1247.39 787.789 1360.28 917.608 1229.32L574.122 1223.29Z" fill="#FFAC7B"/>
<path d="M1137.6 726.788C1137.6 1000.37 1017.08 1273.95 761.576 1278.77C494.019 1283.6 361.445 999.165 361.445 726.788C361.445 453.204 375.908 237.472 749.524 241.087C1143.63 245.908 1137.6 453.204 1137.6 726.788Z" fill="#FFBE98"/>
<ellipse cx="917.607" cy="674.918" rx="48.2085" ry="48.2085" fill="#5F220D"/>
<ellipse cx="580.148" cy="674.918" rx="48.2085" ry="48.2085" fill="#5F220D"/>
<path d="M846.548 572.097C868.058 554.319 926.714 524.746 989.265 548.68" stroke="#A7191A" stroke-width="24.1042" stroke-linecap="round"/>
<path d="M845.662 1108.79C814.391 1135.84 731.619 1175.57 650.696 1118.15" stroke="#B64741" stroke-width="24.1042" stroke-linecap="round"/>
<path d="M648.788 572.097C627.278 554.319 568.621 524.746 506.071 548.68" stroke="#A7191A" stroke-width="24.1042" stroke-linecap="round"/>
<path d="M735.835 699.023C725.792 767.318 706.91 906.319 711.731 915.961C717.757 928.013 778.018 928.013 796.096 915.961" stroke="#F3AF91" stroke-width="24.1042" stroke-linecap="round"/>
<path d="M389.285 386.361C444.725 460.204 1059.38 508.584 1110 343.073C1193.16 64.6763 762.901 26.4815 762.901 26.4815L494.139 91.8369L349.514 292.996C348.308 292.996 366.386 355.805 389.285 386.361Z" fill="#A7191A"/>
<path d="M454.366 418.614C451.956 422.858 444.724 425.404 436.288 425.404C427.851 426.253 415.799 423.707 404.953 419.463C400.132 416.917 395.311 413.522 390.49 410.975C386.874 407.58 384.464 404.185 382.053 400.79C379.643 393.151 382.053 388.058 388.079 386.361C394.105 384.663 401.337 384.663 407.363 385.512C410.979 385.512 414.594 386.361 418.21 388.058C421.825 388.907 426.646 390.605 430.262 392.302C438.698 395.697 444.725 400.79 449.546 405.034C454.366 409.278 456.776 414.37 454.366 418.614Z" fill="#A7191A"/>
<path d="M531.5 436.438C529.09 445.775 507.396 450.019 485.702 444.926C462.803 439.833 449.546 427.951 454.366 419.463C459.187 410.975 479.676 408.429 500.165 413.521C519.448 416.916 535.116 427.102 531.5 436.438Z" fill="#A7191A"/>
<path d="M611.044 446.623C609.839 455.96 589.351 461.053 566.451 458.506C555.605 456.809 545.962 453.414 538.731 449.17C532.705 444.926 529.09 439.833 530.295 435.589C531.5 431.346 537.526 427.95 545.963 426.253C554.399 424.555 564.04 423.707 574.887 425.404C596.581 428.799 613.454 438.136 611.044 446.623Z" fill="#A7191A"/>
<path d="M691.793 452.565C690.588 461.901 671.305 468.692 648.406 466.994C625.507 465.296 608.633 455.96 611.044 446.623C613.454 437.287 631.532 432.194 653.226 433.892C676.125 435.589 692.998 444.077 691.793 452.565Z" fill="#A7191A"/>
<path d="M773.748 454.263C773.748 463.599 755.67 471.238 732.771 471.238C709.872 471.238 691.794 462.75 692.999 453.414C694.204 444.077 712.282 438.136 733.976 438.136C755.67 438.136 773.748 444.926 773.748 454.263Z" fill="#A7191A"/>
<path d="M854.497 450.019C855.702 454.263 850.881 459.355 844.855 462.75C837.624 466.145 827.982 468.692 815.93 469.54C793.031 470.389 773.748 463.599 773.748 454.263C773.748 444.926 790.621 437.287 812.314 436.438C823.161 435.59 832.803 437.287 841.24 439.833C848.471 442.38 854.497 445.775 854.497 450.019Z" fill="#A7191A"/>
<path d="M935.247 440.682C938.862 450.019 923.194 460.204 899.09 462.75C876.191 465.297 855.702 459.355 854.497 450.867C853.292 441.531 868.96 433.043 890.654 430.497C912.347 427.102 931.631 431.346 935.247 440.682Z" fill="#A7191A"/>
<path d="M1011.17 421.16C1013.58 425.404 1012.38 430.497 1007.56 435.589C1002.74 440.682 993.096 445.775 982.25 448.321C976.223 450.019 971.402 450.867 965.376 450.867C960.555 450.867 955.734 450.867 950.914 450.019C942.477 448.321 936.452 445.775 935.247 440.682C934.041 436.438 936.451 431.346 942.477 427.102C944.887 424.555 948.503 422.858 953.324 421.16C956.94 419.463 961.76 417.765 966.581 416.916C976.223 414.37 985.865 413.521 994.302 414.37C1001.53 414.37 1008.76 416.916 1011.17 421.16Z" fill="#A7191A"/>
<path d="M1076.26 387.209C1081.08 390.604 1082.28 395.697 1079.87 401.639C1078.67 405.034 1076.26 407.58 1072.64 410.975C1069.03 414.37 1065.41 417.765 1059.38 419.463C1038.89 429.648 1016 428.799 1011.17 420.312C1005.15 411.824 1016 399.941 1032.87 392.302C1037.69 390.604 1041.3 388.058 1044.92 387.209C1048.54 385.512 1053.36 385.512 1056.97 384.663C1064.2 383.814 1071.44 384.663 1076.26 387.209Z" fill="#A7191A"/>
<path d="M1111.21 336.283C1117.23 337.132 1123.26 341.376 1125.67 347.317C1126.87 353.259 1128.08 362.595 1120.85 371.083C1116.03 379.57 1106.39 385.512 1097.95 388.058C1094.33 389.756 1089.51 390.605 1085.9 389.756C1082.28 389.756 1078.67 388.907 1076.26 387.209C1071.44 383.814 1070.23 379.571 1070.23 373.629C1070.23 367.688 1073.85 362.595 1077.46 356.654C1079.87 354.107 1082.28 351.561 1084.69 348.166C1087.1 345.62 1089.51 343.073 1093.13 341.376C1097.95 337.981 1103.98 335.434 1111.21 336.283Z" fill="#A7191A"/>
<path d="M1119.64 279.415C1132.9 279.415 1143.75 292.996 1140.13 309.971C1138.93 318.459 1134.11 325.249 1129.28 330.342C1123.26 335.434 1117.23 337.132 1111.21 336.283C1105.18 335.434 1100.36 331.191 1096.74 326.098C1094.33 321.005 1093.13 313.366 1094.33 306.576C1095.54 291.298 1106.39 279.415 1119.64 279.415Z" fill="#A7191A"/>
<path d="M1112.41 222.548C1118.44 221.699 1125.67 224.245 1131.7 228.489C1136.52 233.582 1141.34 240.372 1142.54 248.86C1143.75 257.347 1141.34 264.986 1137.72 270.079C1132.9 275.171 1126.88 278.567 1120.85 278.567C1114.82 278.567 1108.8 275.171 1103.98 270.079C1099.16 264.986 1096.74 258.196 1095.54 251.406C1094.33 243.767 1095.54 236.977 1099.16 231.884C1101.57 227.64 1105.18 223.396 1112.41 222.548Z" fill="#A7191A"/>
<path d="M1084.69 169.075C1090.72 167.378 1097.95 168.226 1105.18 171.621C1112.41 175.016 1119.64 181.807 1123.26 189.446C1131.7 205.572 1124.46 220.85 1112.41 222.548C1099.16 224.245 1085.9 214.06 1078.67 200.48C1075.05 193.689 1073.85 186.899 1075.05 180.958C1076.26 175.865 1078.67 170.773 1084.69 169.075Z" fill="#A7191A"/>
<path d="M1037.69 121.544C1047.33 115.602 1067.82 119.846 1082.28 134.275C1089.51 141.066 1093.13 148.705 1093.13 155.495C1093.13 161.436 1089.51 166.529 1084.69 169.075C1078.67 170.773 1071.44 169.924 1064.2 167.377C1056.97 164.831 1049.74 159.739 1043.72 153.797C1032.87 141.914 1028.05 128.334 1037.69 121.544Z" fill="#A7191A"/>
<path d="M976.224 85.0466C983.455 77.4077 1005.15 79.1053 1024.43 90.1393C1034.07 95.232 1040.1 102.022 1042.51 107.963C1044.92 113.905 1043.72 118.998 1038.89 122.393C1034.07 125.788 1026.84 125.788 1018.41 124.939C1009.97 123.241 1001.53 119.846 994.302 115.602C977.429 105.417 968.993 92.6856 976.224 85.0466Z" fill="#A7191A"/>
<path d="M906.321 56.1882C911.142 47.7005 932.835 46.003 954.529 54.4907C965.376 58.7346 972.608 64.6759 976.224 69.7685C979.839 75.7099 981.044 80.8026 977.429 84.1977C973.813 87.5928 966.582 89.2903 958.146 89.2903C949.709 89.2903 940.067 86.744 930.425 83.3489C912.347 76.5587 900.295 64.6759 906.321 56.1882Z" fill="#A7191A"/>
<path d="M829.188 36.6666C832.804 28.1788 854.497 23.935 876.191 29.8764C897.885 35.8178 911.142 47.7006 905.116 56.1884C899.09 64.6761 879.807 66.3735 859.318 61.2809C840.035 56.1883 825.572 45.1543 829.188 36.6666Z" fill="#A7191A"/>
<path d="M750.849 28.1789C749.643 25.6325 749.643 23.935 750.849 21.3887C752.054 20.5399 752.054 18.8424 753.259 17.9936C754.465 16.2961 756.875 15.4473 760.49 13.7498C762.901 12.901 767.722 12.9009 771.337 12.9009C773.748 12.9009 776.158 12.0522 778.568 12.0522C783.389 12.0522 789.416 12.0522 795.442 12.9009C818.341 16.296 834.008 27.3301 830.392 36.6666C826.777 45.1543 806.288 49.3982 785.799 46.0031C780.979 45.1544 776.158 44.3055 771.337 42.608C768.927 41.7592 767.722 40.9104 765.311 40.0616C765.311 39.2128 764.106 38.3642 764.106 37.5154C762.901 36.6666 762.9 35.8178 761.695 35.8178C760.49 34.969 758.08 34.969 756.875 34.1202C753.259 32.4227 752.054 30.7252 750.849 28.1789Z" fill="#A7191A"/>
<path d="M673.715 47.7007C668.895 39.213 683.357 28.1789 703.846 22.2375C725.539 17.1449 746.028 19.6912 749.644 28.1789C754.464 36.6666 740.002 47.7007 719.513 53.6421C699.025 59.5835 678.536 56.1884 673.715 47.7007Z" fill="#A7191A"/>
<path d="M596.582 66.3735C591.761 57.8858 606.224 46.8517 626.712 40.9103C647.201 34.9689 668.895 38.364 672.51 46.8517C677.331 55.3394 662.869 66.3735 642.38 72.3149C621.892 77.4075 601.403 74.8612 596.582 66.3735Z" fill="#A7191A"/>
<path d="M519.448 85.0466C514.627 76.5589 529.09 65.5249 549.579 59.5835C571.272 54.4908 591.761 57.0371 595.377 65.5248C600.197 74.0126 585.735 85.0466 565.246 90.988C544.758 96.0806 524.269 93.5343 519.448 85.0466Z" fill="#A7191A"/>
<path d="M468.829 124.939C456.777 120.695 455.571 106.266 466.418 91.8366C467.623 90.1391 470.034 87.5928 471.239 85.8953C473.65 83.3489 474.855 80.8026 477.265 79.1051C480.881 78.2563 485.702 77.4075 489.317 77.4075C492.933 76.5588 496.549 76.5587 497.754 76.5587C501.37 76.5587 504.985 77.4075 507.396 78.2562C513.422 79.9538 518.243 82.5002 519.448 85.8953C520.653 89.2903 519.448 93.5342 517.037 96.9293C515.832 98.6269 513.422 100.324 509.806 102.022C507.396 102.871 508.601 103.719 508.601 103.719V104.568C508.601 104.568 508.601 104.568 508.601 105.417C508.601 105.417 507.396 106.266 507.396 107.115C498.959 120.695 480.881 128.334 468.829 124.939Z" fill="#A7191A"/>
<path d="M432.672 175.865C420.62 171.621 419.415 157.192 430.262 142.763C439.903 128.334 457.982 120.695 470.034 124.939C482.086 129.183 483.291 143.612 472.444 158.041C461.597 171.621 443.519 180.109 432.672 175.865Z" fill="#A7191A"/>
<path d="M395.311 226.791C383.259 222.547 382.054 208.118 392.9 193.689C402.542 179.26 420.62 171.621 432.672 175.865C444.724 180.109 445.93 194.538 435.083 208.967C425.441 222.548 407.363 231.035 395.311 226.791Z" fill="#A7191A"/>
<path d="M359.155 277.718C347.103 273.474 345.897 259.045 356.744 244.616C366.386 230.186 384.464 222.547 396.516 226.791C408.568 231.035 409.773 245.464 398.927 259.894C388.08 274.323 370.002 281.962 359.155 277.718Z" fill="#A7191A"/>
<path d="M361.565 332.039C349.513 334.585 333.845 323.551 329.024 308.274C327.819 306.576 327.819 304.03 327.819 302.332C326.613 298.937 326.614 295.542 326.614 292.147C325.408 290.449 327.819 289.601 329.024 287.903C330.229 286.206 331.434 285.357 332.64 284.508C333.845 283.659 335.05 281.962 336.255 281.962C337.46 281.113 337.461 281.113 338.666 280.264C345.897 276.869 353.129 276.02 359.155 277.718C365.181 279.415 367.591 284.508 368.796 290.449C368.796 291.298 368.796 292.147 368.796 292.996C368.796 293.844 368.796 293.844 370.001 293.844C371.206 294.693 371.206 294.693 372.412 294.693C373.617 294.693 373.617 294.693 373.617 295.542C374.822 297.24 374.822 298.937 376.027 300.635C379.643 315.913 373.617 329.493 361.565 332.039Z" fill="#A7191A"/>
<path d="M389.285 386.361C378.439 391.454 359.155 381.268 351.923 365.142C344.692 349.015 349.513 334.585 362.77 332.039C374.823 329.493 390.49 339.678 396.516 354.107C402.542 368.536 400.132 381.268 389.285 386.361Z" fill="#A7191A"/>
</g>
<defs>
<filter id="filter0_d_2_1254" x="0.75" y="0" width="1469.74" height="1900" filterUnits="userSpaceOnUse" color-interpolation-filters="sRGB">
<feFlood flood-opacity="0" result="BackgroundImageFix"/>
<feColorMatrix in="SourceAlpha" type="matrix" values="0 0 0 0 0 0 0 0 0 0 0 0 0 0 0 0 0 0 127 0" result="hardAlpha"/>
<feOffset dy="25"/>
<feGaussianBlur stdDeviation="12.5"/>
<feComposite in2="hardAlpha" operator="out"/>
<feColorMatrix type="matrix" values="0 0 0 0 0 0 0 0 0 0 0 0 0 0 0 0 0 0 0.25 0"/>
<feBlend mode="normal" in2="BackgroundImageFix" result="effect1_dropShadow_2_1254"/>
<feBlend mode="normal" in="SourceGraphic" in2="effect1_dropShadow_2_1254" result="shape"/>
</filter>
</defs>
</svg>
