<svg width="249" height="257" viewBox="0 0 249 257" fill="none" xmlns="http://www.w3.org/2000/svg">
<path d="M226.454 225.282C204.926 218.028 151.132 190.182 151.132 190.182H97.65C97.65 190.182 43.882 218.028 22.328 225.282C0.800003 232.536 0.800003 269.3 0.800003 269.3H248.008C248.008 269.3 248.008 232.536 226.48 225.282H226.454Z" fill="#424777"/>
<path fill-rule="evenodd" clip-rule="evenodd" d="M97.1828 194.235L100.693 164.751H147.831L151.471 192.675L146.477 192.818L134.049 201.257L128.069 260.121L118.189 201.985L108.686 193.904L97.1828 194.235Z" fill="#C1735C"/>
<path d="M98.6631 181.754C98.6631 181.754 135.193 185.108 148.063 169.092V150.684L101.757 155.13L98.6631 181.754V181.754Z" fill="#A5503C"/>
<path d="M98.2733 185.033L80.6713 198.787L104.409 221.953L118.189 201.985L98.2733 185.033Z" fill="#515882"/>
<path d="M134.05 201.256L150.508 185.266L166.55 197.954L145.308 221.198L134.05 201.256Z" fill="#515882"/>
<path d="M113.562 13.7966C110.156 5.37261 94.0877 0.224609 94.0877 0.224609C98.0657 26.5626 113.198 20.8946 113.198 20.8946C113.51 20.2706 113.718 19.6466 113.9 19.0486C125.756 25.6526 135.636 1.42061 135.636 1.42061C119.126 2.61661 114.602 9.06461 113.562 13.7966V13.7966Z" fill="#FF7C59"/>
<path fill-rule="evenodd" clip-rule="evenodd" d="M126.588 172.136C150.467 172.136 170.68 152.071 177.474 124.411C179.708 123.97 180.694 123.488 180.694 123.488C186.154 120.576 189.092 113.842 188.26 105.08C187.636 98.5041 182.296 97.4929 179.67 97.3977C177.086 62.8279 154.307 35.7918 126.588 35.7918C98.8716 35.7918 76.0938 62.8243 73.507 97.3907C71.2327 97.3579 64.971 97.9249 64.2916 105.08C63.4596 113.842 66.3976 120.576 71.8576 123.488C71.8576 123.488 73.0276 124.06 75.7056 124.528L75.6989 124.396C82.4894 152.064 102.705 172.136 126.588 172.136Z" fill="#C1735C"/>
<path d="M126.588 31.7873C69.3876 30.9813 73.2616 97.8273 73.2616 97.8273L126.588 101.727L179.914 97.8273C179.914 97.8273 183.788 30.9813 126.588 31.7873V31.7873Z" fill="#C1735C"/>
<path d="M90.0314 90.2896C98.8194 88.7036 106.593 89.9516 110.545 90.7056C111.741 90.9396 112.937 90.3676 113.301 89.3796C113.717 88.2616 112.937 87.1176 111.585 86.8576C107.087 85.9996 99.0014 84.6996 90.5254 87.6636C89.2254 88.1316 86.9114 89.4056 87.6134 90.4196C88.0034 90.7836 88.8614 90.4716 90.0314 90.2636V90.2896Z" fill="#441D39"/>
<path d="M163.691 90.3165C154.903 88.7305 147.129 89.9785 143.177 90.7325C141.981 90.9665 140.785 90.3685 140.421 89.3805C140.005 88.2625 140.785 87.0925 142.137 86.8325C146.635 85.9485 154.721 84.6485 163.197 87.6645C164.497 88.1325 166.811 89.4065 166.109 90.4465C165.719 90.8105 164.861 90.4985 163.691 90.2905V90.3165Z" fill="#441D39"/>
<path d="M151.783 109.422C153.52 109.422 154.929 106.977 154.929 103.962C154.929 100.946 153.52 98.5016 151.783 98.5016C150.045 98.5016 148.637 100.946 148.637 103.962C148.637 106.977 150.045 109.422 151.783 109.422Z" fill="#441D39"/>
<path d="M104.592 108.304C106.329 108.304 107.738 105.86 107.738 102.844C107.738 99.8289 106.329 97.3844 104.592 97.3844C102.854 97.3844 101.446 99.8289 101.446 102.844C101.446 105.86 102.854 108.304 104.592 108.304Z" fill="#441D39"/>
<path d="M130.28 128.507H125.314C123.104 128.507 121.154 127.649 120.114 126.245C119.36 125.231 119.152 124.035 119.516 122.865C120.66 119.121 121.622 115.585 121.622 115.559C121.804 114.857 122.506 114.467 123.208 114.649C123.91 114.831 124.326 115.559 124.118 116.235C124.118 116.235 123.156 119.849 121.986 123.619C121.882 123.983 121.934 124.347 122.194 124.711C122.74 125.465 123.962 125.933 125.314 125.933H130.28C131.008 125.933 131.58 126.505 131.58 127.233C131.58 127.961 131.008 128.533 130.28 128.533V128.507Z" fill="#A5503C"/>
<path d="M118.945 145.458C116.527 145.458 114.941 145.328 114.759 145.302C114.031 145.25 113.511 144.6 113.563 143.898C113.615 143.196 114.239 142.65 114.967 142.702C115.123 142.702 129.787 143.898 140.655 138.542C141.305 138.23 142.085 138.49 142.397 139.14C142.709 139.79 142.449 140.57 141.799 140.882C133.843 144.808 124.301 145.432 118.919 145.432L118.945 145.458Z" fill="#A5503C"/>
<path d="M154.382 117.977C159.394 117.977 163.456 117.046 163.456 115.897C163.456 114.748 159.394 113.817 154.382 113.817C149.371 113.817 145.308 114.748 145.308 115.897C145.308 117.046 149.371 117.977 154.382 117.977Z" fill="#AF5D4E"/>
<path d="M101.445 117.977C106.457 117.977 110.519 117.046 110.519 115.897C110.519 114.748 106.457 113.817 101.445 113.817C96.4339 113.817 92.3713 114.748 92.3713 115.897C92.3713 117.046 96.4339 117.977 101.445 117.977Z" fill="#AF5D4E"/>
<path d="M161.375 56.8262C161.375 56.8262 177.131 85.2442 179.887 97.8282C179.887 97.8282 188.415 59.9462 168.317 39.4582L161.375 56.8002V56.8262Z" fill="#FF7C59"/>
<path d="M73.2611 97.8304L78.9291 76.1984H72.0131L73.2611 97.8304Z" fill="#FF7C59"/>
<path d="M159.581 28.2528C159.581 28.2528 159.581 28.1228 159.581 28.0708C159.581 22.0128 154.667 17.1248 148.635 17.1248C147.309 17.1248 146.087 17.3848 144.917 17.8268C141.693 14.4208 136.649 12.2108 130.929 12.2108C125.651 12.2108 120.919 14.1088 117.669 17.0988C114.263 15.0448 110.051 13.7968 105.501 13.7968C103.577 13.7968 101.731 14.0308 99.9634 14.4208C97.3894 12.1848 94.0614 10.8328 90.3954 10.8328C84.6234 10.8328 79.6574 14.1868 77.2914 19.0488C75.8614 17.8528 74.0414 17.1248 72.0394 17.1248C67.4634 17.1248 63.7714 20.8428 63.7714 25.3928C63.7714 25.8868 63.8234 26.3548 63.9274 26.8228C54.9054 26.9528 47.6254 34.3108 47.6254 43.3588C47.6254 48.8448 50.3034 53.7068 54.4374 56.7228C52.9034 59.2188 52.0194 62.1568 52.0194 65.3288C52.0194 74.4808 59.4294 81.8908 68.5814 81.8908C77.7334 81.8908 85.1434 74.4808 85.1434 65.3288C85.1434 65.1468 85.1434 64.9648 85.1174 64.7828C87.3274 65.8748 89.7974 66.4988 92.4234 66.4988C101.185 66.4988 108.335 59.6868 108.933 51.1068C111.923 54.1488 116.083 56.0208 120.685 56.0208C127.523 56.0208 133.399 51.8608 135.921 45.9328C137.299 53.7068 144.059 59.6088 152.223 59.6088C161.375 59.6088 168.785 52.1988 168.785 43.0468C168.785 36.5728 165.067 30.9828 159.633 28.2528H159.581Z" fill="#441D39"/>
</svg>
