<?xml version="1.0" standalone="no"?>
<!DOCTYPE svg PUBLIC "-//W3C//DTD SVG 20010904//EN"
 "http://www.w3.org/TR/2001/REC-SVG-20010904/DTD/svg10.dtd">
<svg version="1.0" xmlns="http://www.w3.org/2000/svg"
 width="192.000000pt" height="192.000000pt" viewBox="0 0 192.000000 192.000000"
 preserveAspectRatio="xMidYMid meet">
<metadata>
Created by potrace 1.14, written by Peter Selinger 2001-2017
</metadata>
<g transform="translate(0.000000,192.000000) scale(0.100000,-0.100000)"
fill="#000000" stroke="none">
<path d="M910 1582 c-29 -9 -69 -55 -76 -86 -4 -17 -7 -79 -7 -138 l1 -108
-67 -1 c-36 0 -124 -2 -196 -4 -72 -2 -209 -6 -305 -9 -97 -3 -184 -8 -194
-12 -9 -4 -22 -18 -27 -31 -5 -13 -9 -150 -9 -303 0 -338 -8 -318 125 -326 50
-3 145 -7 212 -8 88 -3 129 -8 145 -19 13 -8 61 -52 108 -97 94 -90 121 -108
180 -116 34 -5 47 -1 75 21 37 28 39 38 15 109 -22 69 -21 76 16 98 44 26 54
51 54 139 0 48 4 69 13 69 6 1 103 2 215 4 231 4 204 13 320 -99 79 -74 106
-92 179 -114 67 -20 119 -19 141 3 14 14 14 23 -1 88 -23 97 -22 117 6 127 12
5 31 19 42 31 19 21 20 37 21 349 1 354 -1 373 -52 385 -14 4 -68 9 -118 11
-150 7 -402 21 -546 31 -145 9 -253 12 -270 6z"/>
</g>
</svg>
