<svg width="1566" height="1850" viewBox="0 0 1566 1850" fill="none" xmlns="http://www.w3.org/2000/svg">
<g filter="url(#filter0_d_2_1135)">
<path fill-rule="evenodd" clip-rule="evenodd" d="M1445.34 1554.37C1419.03 1502.07 1325.23 1463.41 1268.03 1448.63L787.588 1324.69H786.445L292.274 1448.63C243.085 1461.14 155.004 1490.7 127.55 1532.77C119.543 1544.14 113.823 1556.65 109.247 1569.15L103.528 1850H368.901L389.022 1807.75V1850H738.4H786.445H1199.82V1807.75L1219.94 1850H1451.06L1445.34 1554.37Z" fill="#6F001B"/>
<path d="M791.808 1575.88C649.315 1579.24 468.96 1404.84 468.96 1404.84C722.542 1301.04 993.344 1361.59 1097.05 1404.84C1097.05 1404.84 928.257 1572.65 791.808 1575.88Z" fill="#FFBE98"/>
<path fill-rule="evenodd" clip-rule="evenodd" d="M494.493 1395.06C513.358 1412.41 658.844 1541.99 791.808 1538.85C918.653 1535.85 1053.15 1412.52 1071.46 1395.17C1080.85 1398.47 1089.4 1401.75 1097.05 1404.94C1097.05 1404.94 928.257 1572.66 791.808 1575.88C649.315 1579.24 468.96 1404.94 468.96 1404.94C477.454 1401.46 485.967 1398.17 494.493 1395.06Z" fill="#9394A9"/>
<path d="M878.929 1465.15H689.361C652.818 1465.15 624.269 1435.46 624.269 1400.06V1092.87C624.269 1031.2 674.515 982.099 735.04 982.099H833.25C894.917 982.099 944.022 1032.35 944.022 1092.87V1400.06C944.022 1435.46 914.331 1465.15 878.929 1465.15Z" fill="#FFBE98"/>
<path d="M620.492 1164.81C626.202 1187.65 825.582 1288.91 948.59 1164.81H620.492Z" fill="#FFAC7B"/>
<path d="M459.371 922.46C459.371 922.46 384.001 924.744 352.026 809.405C320.05 692.923 384.001 695.207 420.544 726.041L459.371 922.46Z" fill="#F3AF91"/>
<path d="M1101.16 922.46C1101.16 922.46 1176.53 924.744 1208.51 809.405C1240.48 692.923 1176.53 695.207 1139.99 726.041L1101.16 922.46Z" fill="#F3AF91"/>
<path d="M1147.29 688.653C1147.29 947.882 1033.1 1207.11 790.997 1211.68C537.478 1216.25 411.861 946.74 411.861 688.653C411.861 429.425 425.565 225.012 779.577 228.437C1153 233.005 1147.29 429.425 1147.29 688.653Z" fill="#FFBE98"/>
<ellipse cx="937.17" cy="639.506" rx="45.679" ry="68.5185" fill="#36180E"/>
<ellipse cx="617.417" cy="639.506" rx="45.679" ry="68.5185" fill="#36180E"/>
<path d="M871.51 542.08C891.891 525.235 947.47 497.213 1006.74 519.891" stroke="#5F220D" stroke-width="22.8395" stroke-linecap="round"/>
<path d="M684.127 542.08C663.746 525.235 608.167 497.213 548.898 519.891" stroke="#5F220D" stroke-width="22.8395" stroke-linecap="round"/>
<path d="M766.607 673.766C757.09 738.478 739.199 870.185 743.767 879.321C749.477 890.741 806.576 890.741 823.706 879.321" stroke="#F3AF91" stroke-width="22.8395" stroke-linecap="round"/>
<path d="M417.571 747.994C417.571 711.45 510.832 460.597 548.898 393.981C544.33 366.574 500.896 329.269 487.573 319.753C379.086 445.37 417.571 793.673 417.571 747.994Z" fill="#C78068"/>
<path d="M1142.73 725.155C1139.19 688.783 1043.75 437.757 1005.69 371.142C1010.26 343.735 1055.17 323.56 1068.5 314.043C1194.11 445.371 1147.38 772.954 1142.73 725.155Z" fill="#C78068"/>
<ellipse cx="777.293" cy="296.913" rx="296.914" ry="171.296" fill="#5C1717"/>
<ellipse cx="777.293" cy="296.913" rx="274.074" ry="171.296" fill="#763620"/>
<ellipse cx="777.293" cy="296.913" rx="262.654" ry="171.296" fill="#5C1717"/>
<ellipse cx="777.293" cy="296.913" rx="228.395" ry="171.296" fill="#763620"/>
<ellipse cx="777.293" cy="296.913" rx="216.975" ry="171.296" fill="#5C1717"/>
<ellipse cx="777.293" cy="296.913" rx="194.136" ry="171.296" fill="#763620"/>
<ellipse cx="777.293" cy="296.913" rx="182.716" ry="171.296" fill="#5C1717"/>
<ellipse cx="777.293" cy="296.913" rx="148.457" ry="171.296" fill="#763620"/>
<ellipse cx="777.293" cy="296.913" rx="137.037" ry="171.296" fill="#5C1717"/>
<ellipse cx="777.293" cy="296.913" rx="102.778" ry="171.296" fill="#763620"/>
<ellipse cx="777.293" cy="296.913" rx="91.358" ry="171.296" fill="#5C1717"/>
<ellipse cx="777.293" cy="296.913" rx="68.5185" ry="171.296" fill="#763620"/>
<ellipse cx="777.293" cy="296.913" rx="57.0988" ry="171.296" fill="#5C1717"/>
<ellipse cx="777.293" cy="296.913" rx="11.4198" ry="171.296" fill="#763620"/>
<circle cx="777.293" cy="79.9382" r="68.5185" fill="#5C1717"/>
<ellipse cx="777.293" cy="79.9382" rx="57.0988" ry="68.5185" fill="#763620"/>
<ellipse cx="777.293" cy="79.9382" rx="45.679" ry="68.5185" fill="#5C1717"/>
<ellipse cx="777.293" cy="79.9382" rx="34.2593" ry="68.5185" fill="#763620"/>
<ellipse cx="777.293" cy="79.9382" rx="22.8395" ry="68.5185" fill="#5C1717"/>
<ellipse cx="777.293" cy="79.9382" rx="11.4198" ry="68.5185" fill="#763620"/>
<path d="M857.074 1016.36C834.899 1030.76 776.48 1052.24 720.194 1022.93" stroke="#B64741" stroke-width="22.8395" stroke-linecap="round"/>
</g>
<defs>
<filter id="filter0_d_2_1135" x="-24.25" y="0" width="1614.51" height="1900" filterUnits="userSpaceOnUse" color-interpolation-filters="sRGB">
<feFlood flood-opacity="0" result="BackgroundImageFix"/>
<feColorMatrix in="SourceAlpha" type="matrix" values="0 0 0 0 0 0 0 0 0 0 0 0 0 0 0 0 0 0 127 0" result="hardAlpha"/>
<feOffset dy="25"/>
<feGaussianBlur stdDeviation="12.5"/>
<feComposite in2="hardAlpha" operator="out"/>
<feColorMatrix type="matrix" values="0 0 0 0 0 0 0 0 0 0 0 0 0 0 0 0 0 0 0.25 0"/>
<feBlend mode="normal" in2="BackgroundImageFix" result="effect1_dropShadow_2_1135"/>
<feBlend mode="normal" in="SourceGraphic" in2="effect1_dropShadow_2_1135" result="shape"/>
</filter>
</defs>
</svg>
