<svg width="1566" height="1850" viewBox="0 0 1566 1850" fill="none" xmlns="http://www.w3.org/2000/svg">
<g filter="url(#filter0_d_2_978)">
<path fill-rule="evenodd" clip-rule="evenodd" d="M1442.81 1557.65C1416.55 1505.12 1322.91 1466.3 1265.81 1451.45L786.177 1326.98H785.036L291.702 1451.45C242.597 1464.01 154.666 1493.7 127.258 1535.96C119.264 1547.38 113.554 1559.94 108.986 1572.5L103.276 1854.57H366.474L388.77 1807.75V1854.57H737.073H785.036H1199.57V1807.75L1221.87 1854.57H1448.52L1442.81 1557.65Z" fill="#357653"/>
<path d="M777.043 1535.96L474.42 1404.63C721.087 1304.14 984.502 1362.76 1085.38 1404.63L777.043 1535.96Z" fill="#FFBE98"/>
<path d="M878.68 1465.15H689.112C652.568 1465.15 624.02 1435.46 624.02 1400.06V1092.87C624.02 1031.2 674.266 982.099 734.791 982.099H833.001C894.668 982.099 943.773 1032.35 943.773 1092.87V1400.06C943.773 1435.46 914.081 1465.15 878.68 1465.15Z" fill="#FFBE98"/>
<path d="M620.242 1164.81C625.952 1187.65 825.333 1288.91 948.34 1164.81H620.242Z" fill="#FFAC7B"/>
<path d="M447.702 922.46C447.702 922.46 372.331 924.744 340.356 809.404C308.381 692.923 372.331 695.207 408.874 726.04L447.702 922.46Z" fill="#F3AF91"/>
<path d="M1100.91 922.46C1100.91 922.46 1176.28 924.744 1208.26 809.404C1240.23 692.923 1176.28 695.207 1139.74 726.04L1100.91 922.46Z" fill="#F3AF91"/>
<path d="M1147.04 688.653C1147.04 947.882 1032.85 1207.11 790.747 1211.68C537.229 1216.25 411.611 946.74 411.611 688.653C411.611 429.425 425.315 225.012 779.327 228.438C1152.75 233.005 1147.04 429.425 1147.04 688.653Z" fill="#FFBE98"/>
<ellipse cx="936.92" cy="639.506" rx="45.679" ry="68.5185" fill="#36180E"/>
<ellipse cx="617.166" cy="639.506" rx="45.679" ry="68.5185" fill="#36180E"/>
<path d="M871.26 542.08C891.641 525.235 947.22 497.213 1006.49 519.891" stroke="#FFFAF9" stroke-width="45.679" stroke-linecap="round"/>
<path d="M683.878 542.08C663.497 525.235 607.918 497.213 548.649 519.891" stroke="#FFFAF9" stroke-width="45.679" stroke-linecap="round"/>
<path d="M845.403 1050.62C823.229 1065.02 764.809 1086.5 708.524 1057.19" stroke="#B64741" stroke-width="22.8395" stroke-linecap="round"/>
<path d="M771.196 708.025C761.68 772.737 738.812 830.216 743.38 839.352C749.09 850.772 806.188 850.772 823.318 839.352" stroke="#F3AF91" stroke-width="22.8395" stroke-linecap="round"/>
<path d="M1125.34 787.963C1121.81 779.196 1037.93 1083.32 963.47 1098.15C889.014 1112.98 969.179 1030.77 950.908 999.94C932.636 969.106 851.556 923.427 823.007 934.847C803.593 942.841 797.443 954.261 778.47 954.261C759.496 954.261 752.204 942.841 733.932 934.847C705.383 922.285 624.303 967.964 606.031 999.94C587.76 1030.77 668.84 1110.71 593.47 1098.15C518.099 1085.59 440.16 805.093 440.16 805.093C399.917 774.876 424.105 766.505 463.284 1046.76C497.544 1313.98 751.062 1311.7 779.611 1310.56C807.019 1311.7 1061.68 1313.98 1095.94 1046.76C1130.2 764.693 1171.02 759.413 1125.34 787.963ZM779.611 1193.36C779.611 1193.36 681.884 1166.49 668.555 1098.15C661.59 1062.44 634.296 999.228 647.142 1006.79C659.989 1014.35 777.328 994.23 777.328 994.23C777.328 993.088 778.47 990.804 778.47 990.804C778.47 990.804 778.47 993.088 779.611 994.23C779.611 994.23 894.094 1013.64 909.797 1006.79C925.499 999.94 903.961 1062.45 896.95 1098.15C883.679 1165.73 779.611 1193.36 779.611 1193.36Z" fill="#FFFDFD"/>
<path d="M1119.64 807.022C1160.75 569.491 1100.6 454.913 1062.54 418.75C1125.35 407.33 1140.7 405.55 1171.02 435.88C1222.41 487.269 1171.02 824.152 1119.64 807.022Z" fill="white"/>
<path d="M438.607 807.022C397.496 569.491 457.64 454.913 495.706 418.75C432.897 407.33 417.548 405.55 387.218 435.88C335.83 487.269 387.218 824.152 438.607 807.022Z" fill="white"/>
<path d="M777.044 1535.96L491.326 1393.21L445.871 1413.77L634.185 1598.77L777.044 1535.96Z" fill="#D9D9D9"/>
<path d="M777.044 1535.96L1062.76 1393.21L1108.22 1413.77L919.903 1598.77L777.044 1535.96Z" fill="#D9D9D9"/>
<path fill-rule="evenodd" clip-rule="evenodd" d="M788.463 1587.35C788.463 1593.65 783.35 1598.77 777.043 1598.77C770.736 1598.77 765.623 1593.65 765.623 1587.35C765.623 1581.04 770.736 1575.93 777.043 1575.93C783.35 1575.93 788.463 1581.04 788.463 1587.35ZM775.9 1584.49C775.9 1586.07 774.622 1587.35 773.045 1587.35C771.469 1587.35 770.19 1586.07 770.19 1584.49C770.19 1582.91 771.469 1581.64 773.045 1581.64C774.622 1581.64 775.9 1582.91 775.9 1584.49ZM781.04 1587.35C782.616 1587.35 783.894 1586.07 783.894 1584.49C783.894 1582.91 782.616 1581.64 781.04 1581.64C779.463 1581.64 778.185 1582.91 778.185 1584.49C778.185 1586.07 779.463 1587.35 781.04 1587.35ZM783.894 1591.34C783.894 1592.92 782.616 1594.2 781.04 1594.2C779.463 1594.2 778.185 1592.92 778.185 1591.34C778.185 1589.77 779.463 1588.49 781.04 1588.49C782.616 1588.49 783.894 1589.77 783.894 1591.34ZM773.045 1594.2C774.622 1594.2 775.9 1592.92 775.9 1591.34C775.9 1589.77 774.622 1588.49 773.045 1588.49C771.469 1588.49 770.19 1589.77 770.19 1591.34C770.19 1592.92 771.469 1594.2 773.045 1594.2Z" fill="#FFBE98"/>
<path fill-rule="evenodd" clip-rule="evenodd" d="M788.463 1667.28C788.463 1673.59 783.35 1678.7 777.043 1678.7C770.736 1678.7 765.623 1673.59 765.623 1667.28C765.623 1660.98 770.736 1655.86 777.043 1655.86C783.35 1655.86 788.463 1660.98 788.463 1667.28ZM775.9 1664.43C775.9 1666.01 774.622 1667.28 773.045 1667.28C771.469 1667.28 770.19 1666.01 770.19 1664.43C770.19 1662.85 771.469 1661.57 773.045 1661.57C774.622 1661.57 775.9 1662.85 775.9 1664.43ZM781.04 1667.28C782.616 1667.28 783.894 1666.01 783.894 1664.43C783.894 1662.85 782.616 1661.57 781.04 1661.57C779.463 1661.57 778.185 1662.85 778.185 1664.43C778.185 1666.01 779.463 1667.28 781.04 1667.28ZM783.894 1671.28C783.894 1672.86 782.616 1674.14 781.04 1674.14C779.463 1674.14 778.185 1672.86 778.185 1671.28C778.185 1669.7 779.463 1668.43 781.04 1668.43C782.616 1668.43 783.894 1669.7 783.894 1671.28ZM773.045 1674.14C774.622 1674.14 775.9 1672.86 775.9 1671.28C775.9 1669.7 774.622 1668.43 773.045 1668.43C771.469 1668.43 770.19 1669.7 770.19 1671.28C770.19 1672.86 771.469 1674.14 773.045 1674.14Z" fill="#FFBE98"/>
<path fill-rule="evenodd" clip-rule="evenodd" d="M788.463 1747.22C788.463 1753.53 783.35 1758.64 777.043 1758.64C770.736 1758.64 765.623 1753.53 765.623 1747.22C765.623 1740.92 770.736 1735.8 777.043 1735.8C783.35 1735.8 788.463 1740.92 788.463 1747.22ZM775.9 1744.37C775.9 1745.94 774.622 1747.22 773.045 1747.22C771.469 1747.22 770.19 1745.94 770.19 1744.37C770.19 1742.79 771.469 1741.51 773.045 1741.51C774.622 1741.51 775.9 1742.79 775.9 1744.37ZM781.04 1747.22C782.616 1747.22 783.894 1745.94 783.894 1744.37C783.894 1742.79 782.616 1741.51 781.04 1741.51C779.463 1741.51 778.185 1742.79 778.185 1744.37C778.185 1745.94 779.463 1747.22 781.04 1747.22ZM783.894 1751.22C783.894 1752.8 782.616 1754.07 781.04 1754.07C779.463 1754.07 778.185 1752.8 778.185 1751.22C778.185 1749.64 779.463 1748.36 781.04 1748.36C782.616 1748.36 783.894 1749.64 783.894 1751.22ZM773.045 1754.07C774.622 1754.07 775.9 1752.8 775.9 1751.22C775.9 1749.64 774.622 1748.36 773.045 1748.36C771.469 1748.36 770.19 1749.64 770.19 1751.22C770.19 1752.8 771.469 1754.07 773.045 1754.07Z" fill="#FFBE98"/>
<path fill-rule="evenodd" clip-rule="evenodd" d="M788.463 1827.16C788.463 1833.47 783.35 1838.58 777.043 1838.58C770.736 1838.58 765.623 1833.47 765.623 1827.16C765.623 1820.85 770.736 1815.74 777.043 1815.74C783.35 1815.74 788.463 1820.85 788.463 1827.16ZM775.9 1824.31C775.9 1825.88 774.622 1827.16 773.045 1827.16C771.469 1827.16 770.19 1825.88 770.19 1824.31C770.19 1822.73 771.469 1821.45 773.045 1821.45C774.622 1821.45 775.9 1822.73 775.9 1824.31ZM781.04 1827.16C782.616 1827.16 783.894 1825.88 783.894 1824.31C783.894 1822.73 782.616 1821.45 781.04 1821.45C779.463 1821.45 778.185 1822.73 778.185 1824.31C778.185 1825.88 779.463 1827.16 781.04 1827.16ZM783.894 1831.16C783.894 1832.73 782.616 1834.01 781.04 1834.01C779.463 1834.01 778.185 1832.73 778.185 1831.16C778.185 1829.58 779.463 1828.3 781.04 1828.3C782.616 1828.3 783.894 1829.58 783.894 1831.16ZM773.045 1834.01C774.622 1834.01 775.9 1832.73 775.9 1831.16C775.9 1829.58 774.622 1828.3 773.045 1828.3C771.469 1828.3 770.19 1829.58 770.19 1831.16C770.19 1832.73 771.469 1834.01 773.045 1834.01Z" fill="#FFBE98"/>
</g>
<defs>
<filter id="filter0_d_2_978" x="-24.5" y="0" width="1614.51" height="1904.57" filterUnits="userSpaceOnUse" color-interpolation-filters="sRGB">
<feFlood flood-opacity="0" result="BackgroundImageFix"/>
<feColorMatrix in="SourceAlpha" type="matrix" values="0 0 0 0 0 0 0 0 0 0 0 0 0 0 0 0 0 0 127 0" result="hardAlpha"/>
<feOffset dy="25"/>
<feGaussianBlur stdDeviation="12.5"/>
<feComposite in2="hardAlpha" operator="out"/>
<feColorMatrix type="matrix" values="0 0 0 0 0 0 0 0 0 0 0 0 0 0 0 0 0 0 0.25 0"/>
<feBlend mode="normal" in2="BackgroundImageFix" result="effect1_dropShadow_2_978"/>
<feBlend mode="normal" in="SourceGraphic" in2="effect1_dropShadow_2_978" result="shape"/>
</filter>
</defs>
</svg>
